<svg xmlns="http://www.w3.org/2000/svg" xmlns:xlink="http://www.w3.org/1999/xlink" viewBox="0,0,256,256" width="64px" height="64px"><defs><linearGradient x1="47" y1="33.375" x2="47" y2="43.014" gradientUnits="userSpaceOnUse" id="color-1"><stop offset="0" stop-color="#0000ff"></stop><stop offset="1" stop-color="#952ffa"></stop></linearGradient><linearGradient x1="34.5" y1="41.66" x2="34.5" y2="43.845" gradientUnits="userSpaceOnUse" id="color-2"><stop offset="0" stop-color="#0000ff"></stop><stop offset="1" stop-color="#952ffa"></stop></linearGradient><linearGradient x1="27" y1="7" x2="27" y2="50.583" gradientUnits="userSpaceOnUse" id="color-3"><stop offset="0" stop-color="#0000ff"></stop><stop offset="1" stop-color="#952ffa"></stop></linearGradient><linearGradient x1="26" y1="7" x2="26" y2="50.583" gradientUnits="userSpaceOnUse" id="color-4"><stop offset="0" stop-color="#0000ff"></stop><stop offset="1" stop-color="#952ffa"></stop></linearGradient><linearGradient x1="33" y1="7" x2="33" y2="50.583" gradientUnits="userSpaceOnUse" id="color-5"><stop offset="0" stop-color="#0000ff"></stop><stop offset="1" stop-color="#952ffa"></stop></linearGradient><linearGradient x1="47" y1="7" x2="47" y2="50.583" gradientUnits="userSpaceOnUse" id="color-6"><stop offset="0" stop-color="#0000ff"></stop><stop offset="1" stop-color="#952ffa"></stop></linearGradient><linearGradient x1="15.5" y1="41.702" x2="15.5" y2="43.977" gradientUnits="userSpaceOnUse" id="color-7"><stop offset="0" stop-color="#0000ff"></stop><stop offset="1" stop-color="#952ffa"></stop></linearGradient></defs><g fill="none" fill-rule="nonzero" stroke="none" stroke-width="1" stroke-linecap="butt" stroke-linejoin="miter" stroke-miterlimit="10" stroke-dasharray="" stroke-dashoffset="0" font-family="none" font-weight="none" font-size="none" text-anchor="none" style="mix-blend-mode: normal"><g transform="scale(4,4)"><circle cx="47" cy="38" r="4" fill="url(#color-1)"></circle><rect x="32" y="42" width="5" height="2" fill="url(#color-2)"></rect><rect x="26" y="35" width="2" height="4" fill="url(#color-3)"></rect><rect x="20" y="24" width="12" height="2" fill="url(#color-4)"></rect><path d="M47,26c-1.404,0 -2.747,0.255 -4,0.7v-6.7c1.102,0 2,-0.898 2,-2v-2c0,-1.102 -0.898,-2 -2,-2h-0.383l-3.445,-6.895c-0.344,-0.679 -1.027,-1.105 -1.789,-1.105h-22.766c-0.762,0 -1.445,0.426 -1.789,1.105l-3.445,6.895h-0.383c-1.102,0 -2,0.898 -2,2v2c0,1.102 0.898,2 2,2v24c0,1.102 0.898,2 2,2h26.78c1.393,1.979 3.102,3.696 4.641,5.235c1.841,1.841 3.579,3.579 3.579,4.765v2h2v-2c0,-1.186 1.738,-2.924 3.579,-4.765c3.306,-3.306 7.421,-7.421 7.421,-13.235c0,-6.617 -5.383,-12 -12,-12zM14.617,8h22.766l3,6h-28.766zM9,18v-2h34v2zM20,44h-9v-2h9zM30,44h-8v-13c0,-0.551 0.449,-1 1,-1h6c0.551,0 1,0.449 1,1zM29,28h-6c-1.652,0 -3,1.348 -3,3v9h-9v-20h30v7.624c-3.581,2.079 -6,5.946 -6,10.376c0,0.691 0.065,1.356 0.173,2h-3.173v-9c0,-1.652 -1.348,-3 -3,-3zM32,44v-2h3.681c0.239,0.694 0.531,1.36 0.867,2zM50.165,49.821c-1.276,1.276 -2.406,2.405 -3.165,3.497c-0.759,-1.092 -1.889,-2.221 -3.165,-3.497c-3.045,-3.045 -6.835,-6.835 -6.835,-11.821c0,-5.514 4.486,-10 10,-10c5.514,0 10,4.486 10,10c0,4.986 -3.79,8.776 -6.835,11.821z" fill="url(#color-5)"></path><path d="M47,32c-3.309,0 -6,2.691 -6,6c0,3.309 2.691,6 6,6c3.309,0 6,-2.691 6,-6c0,-3.309 -2.691,-6 -6,-6zM47,42c-2.206,0 -4,-1.794 -4,-4c0,-2.206 1.794,-4 4,-4c2.206,0 4,1.794 4,4c0,2.206 -1.794,4 -4,4z" fill="url(#color-6)"></path><rect x="11" y="42" width="9" height="2" fill="url(#color-7)"></rect></g></g></svg>