<svg xmlns="http://www.w3.org/2000/svg" xmlns:xlink="http://www.w3.org/1999/xlink" viewBox="0,0,256,256" width="64px" height="64px"><defs><linearGradient x1="3.511" y1="51.044" x2="57.278" y2="51.044" gradientUnits="userSpaceOnUse" id="color-1"><stop offset="0" stop-color="#0000ff"></stop><stop offset="1" stop-color="#952ffa"></stop></linearGradient><linearGradient x1="3.511" y1="49.16" x2="57.278" y2="49.16" gradientUnits="userSpaceOnUse" id="color-2"><stop offset="0" stop-color="#0000ff"></stop><stop offset="1" stop-color="#952ffa"></stop></linearGradient><linearGradient x1="32" y1="8.149" x2="32" y2="44.066" gradientUnits="userSpaceOnUse" id="color-3"><stop offset="0" stop-color="#0000ff"></stop><stop offset="1" stop-color="#952ffa"></stop></linearGradient></defs><g fill="none" fill-rule="nonzero" stroke="none" stroke-width="1" stroke-linecap="butt" stroke-linejoin="miter" stroke-miterlimit="10" stroke-dasharray="" stroke-dashoffset="0" font-family="none" font-weight="none" font-size="none" text-anchor="none" style="mix-blend-mode: normal"><g transform="scale(4,4)"><path d="M50.486,48.49c-5.784,2.462 -12.923,3.692 -18.587,3.692c-8.365,0 -15.875,-2.212 -22.519,-6.029c-0.495,-0.245 -0.986,0.245 -0.495,0.74c6.154,5.54 14.154,9.107 23.14,9.107c6.279,0 14.029,-2.337 19.202,-6.154c0.86,-0.615 0.12,-1.601 -0.741,-1.356z" fill="url(#color-1)"></path><path d="M55.164,45.538c-0.495,-0.74 -5.293,-1.356 -8.125,0.74c-0.49,0.365 -0.37,0.736 0.125,0.736c1.601,-0.12 5.293,-0.615 5.909,0.245c0.615,0.865 -0.74,4.308 -1.356,5.788c-0.245,0.365 0.245,0.615 0.615,0.245c2.707,-2.215 3.322,-7.013 2.832,-7.754z" fill="url(#color-2)"></path><g fill="url(#color-3)"><path d="M41.086,45.002c-0.375,0 -0.768,-0.088 -1.139,-0.271c-0.075,-0.038 -0.146,-0.084 -0.21,-0.139c-1.682,-1.449 -2.366,-2.381 -3.114,-3.521c-3.204,2.882 -5.944,3.881 -10.317,3.881c-6.357,0.001 -10.306,-4.043 -10.306,-10.552c0,-5.032 2.66,-9.022 7.298,-10.945c3.229,-1.35 6.949,-1.463 10.604,-1.473v-2.496c0,-2.425 -2.534,-2.495 -2.823,-2.495c-1.012,0 -3.417,0.273 -3.908,2.804c-0.252,1.205 -1.059,1.975 -2.059,1.975c-0.038,0 -0.076,-0.002 -0.114,-0.006l-6.084,-0.701c-0.042,-0.005 -0.084,-0.013 -0.125,-0.022c-1.208,-0.297 -1.878,-1.24 -1.706,-2.401c1.362,-6.879 6.585,-10.64 14.715,-10.64c1.538,0 6.811,0.238 10.107,3.298c3.303,3.094 3.303,7.041 3.303,11.219v9.667c0,2.362 0.849,3.428 1.923,4.778l0.242,0.305c0.462,0.563 0.681,1.205 0.615,1.806c-0.058,0.534 -0.326,1.002 -0.775,1.356c-1.427,1.141 -3.981,3.382 -4.73,4.042c-0.35,0.347 -0.855,0.531 -1.397,0.531zM40.924,42.974c0.104,0.032 0.189,0.029 0.219,0.018c0.775,-0.689 3.36,-2.957 4.828,-4.13c0.029,-0.03 -0.002,-0.153 -0.147,-0.33c-0.005,-0.006 -0.01,-0.012 -0.015,-0.018l-0.243,-0.307c-1.159,-1.457 -2.357,-2.962 -2.357,-6.023v-9.667c0,-4.055 0,-7.258 -2.667,-9.756c-2.192,-2.035 -5.955,-2.761 -8.744,-2.761c-5.002,0 -11.273,1.558 -12.745,8.979c0.01,0.033 0.066,0.073 0.165,0.104l5.885,0.678c-0.01,-0.032 0.066,-0.162 0.108,-0.363c0.525,-2.713 2.775,-4.408 5.868,-4.408c2.323,0 4.823,1.407 4.823,4.495v3.495c0,0.552 -0.447,1 -1,1c-3.774,0 -7.679,0 -10.836,1.32c-3.913,1.624 -6.066,4.855 -6.066,9.1c0,5.356 3.104,8.553 8.306,8.553c4.213,0 6.596,-1.007 9.805,-4.144c0.214,-0.208 0.505,-0.31 0.807,-0.279c0.297,0.032 0.563,0.195 0.728,0.444l0.379,0.581c0.791,1.224 1.322,2.043 2.899,3.419zM28.884,38.052c-3.383,0 -4.611,-2.707 -4.611,-4.525c0,-6.875 7.449,-6.875 10.63,-6.875c0.553,0 1,0.448 1,1v1.294c-0.001,6.042 -2.362,9.106 -7.019,9.106zM33.902,28.664c-5.472,0.146 -7.63,1.549 -7.63,4.863c0.006,0.416 0.159,2.525 2.611,2.525c4.448,0 5.019,-3.798 5.019,-7.106z"></path></g></g></g></svg>