<svg xmlns="http://www.w3.org/2000/svg" xmlns:xlink="http://www.w3.org/1999/xlink" viewBox="0,0,256,256" width="64px" height="64px"><defs><linearGradient x1="26" y1="14.532" x2="26" y2="20.201" gradientUnits="userSpaceOnUse" id="color-1"><stop offset="0" stop-color="#0000ff"></stop><stop offset="1" stop-color="#952ffa"></stop></linearGradient><linearGradient x1="26" y1="6.362" x2="26" y2="53.64" gradientUnits="userSpaceOnUse" id="color-2"><stop offset="0" stop-color="#0000ff"></stop><stop offset="1" stop-color="#952ffa"></stop></linearGradient><linearGradient x1="26" y1="6.362" x2="26" y2="53.64" gradientUnits="userSpaceOnUse" id="color-3"><stop offset="0" stop-color="#0000ff"></stop><stop offset="1" stop-color="#952ffa"></stop></linearGradient><linearGradient x1="26" y1="6.362" x2="26" y2="53.64" gradientUnits="userSpaceOnUse" id="color-4"><stop offset="0" stop-color="#0000ff"></stop><stop offset="1" stop-color="#952ffa"></stop></linearGradient><linearGradient x1="18" y1="6.362" x2="18" y2="53.64" gradientUnits="userSpaceOnUse" id="color-5"><stop offset="0" stop-color="#0000ff"></stop><stop offset="1" stop-color="#952ffa"></stop></linearGradient><linearGradient x1="22" y1="6.362" x2="22" y2="53.64" gradientUnits="userSpaceOnUse" id="color-6"><stop offset="0" stop-color="#0000ff"></stop><stop offset="1" stop-color="#952ffa"></stop></linearGradient><linearGradient x1="26" y1="6.362" x2="26" y2="53.64" gradientUnits="userSpaceOnUse" id="color-7"><stop offset="0" stop-color="#0000ff"></stop><stop offset="1" stop-color="#952ffa"></stop></linearGradient><linearGradient x1="32" y1="6.362" x2="32" y2="53.64" gradientUnits="userSpaceOnUse" id="color-8"><stop offset="0" stop-color="#0000ff"></stop><stop offset="1" stop-color="#952ffa"></stop></linearGradient><linearGradient x1="48.5" y1="6.362" x2="48.5" y2="53.64" gradientUnits="userSpaceOnUse" id="color-9"><stop offset="0" stop-color="#0000ff"></stop><stop offset="1" stop-color="#952ffa"></stop></linearGradient></defs><g fill="none" fill-rule="nonzero" stroke="none" stroke-width="1" stroke-linecap="butt" stroke-linejoin="miter" stroke-miterlimit="10" stroke-dasharray="" stroke-dashoffset="0" font-family="none" font-weight="none" font-size="none" text-anchor="none" style="mix-blend-mode: normal"><g transform="scale(4,4)"><path d="M17.949,20h16.103c0.523,0 0.948,-0.425 0.948,-0.949v-2.103c0,-0.523 -0.425,-0.948 -0.949,-0.948h-16.102c-0.524,0 -0.949,0.425 -0.949,0.949v2.103c0,0.523 0.425,0.948 0.949,0.948z" fill="url(#color-1)"></path><rect x="17" y="23" width="18" height="2" fill="url(#color-2)"></rect><rect x="17" y="28" width="18" height="2" fill="url(#color-3)"></rect><rect x="17" y="33" width="18" height="2" fill="url(#color-4)"></rect><rect x="17" y="39" width="2" height="3" fill="url(#color-5)"></rect><rect x="21" y="39" width="2" height="3" fill="url(#color-6)"></rect><rect x="25" y="39" width="2" height="3" fill="url(#color-7)"></rect><path d="M58,32c0,-4.469 -2.947,-8.262 -7,-9.539v-13.304c0,-0.813 -0.484,-1.541 -1.233,-1.851c-0.743,-0.309 -1.594,-0.143 -2.167,0.428l-1.498,1.496l-2.524,-1.843c-0.704,-0.516 -1.651,-0.517 -2.355,-0.001l-2.62,1.917l-2.624,-1.916c-0.703,-0.516 -1.65,-0.517 -2.355,-0.001l-2.62,1.917l-2.625,-1.916c-0.703,-0.516 -1.65,-0.517 -2.355,-0.001l-2.62,1.917l-2.624,-1.916c-0.703,-0.516 -1.65,-0.517 -2.355,-0.001l-2.521,1.843l-1.504,-1.495c-0.574,-0.571 -1.425,-0.739 -2.167,-0.428c-0.749,0.31 -1.233,1.038 -1.233,1.851v37.844h-5v5c0,2.757 2.244,5 5,5h34.999c2.757,-0.001 5.001,-2.244 5.001,-5.001v-10.461c4.053,-1.277 7,-5.07 7,-9.539zM11,55c-1.654,0 -3,-1.346 -3,-3v-3h33v3c0,1.125 0.373,2 1.001,3zM49,52c0,1.654 -1.346,3 -3,3c-1.654,0 -3,-1.346 -3,-3v-5h-30v-9h-0.001l-0.009,-28.849l1.502,1.495c0.7,0.696 1.786,0.779 2.586,0.198l2.52,-1.844l2.625,1.917c0.706,0.515 1.65,0.513 2.354,0l2.62,-1.917l2.626,1.917c0.705,0.514 1.648,0.514 2.353,0l2.621,-1.917l2.625,1.917c0.706,0.515 1.65,0.513 2.354,0l2.62,-1.917l2.526,1.844c0.797,0.582 1.885,0.499 2.585,-0.198l1.493,-1.489v12.894c-0.329,-0.033 -0.662,-0.051 -1,-0.051c-5.514,0 -10,4.486 -10,10c0,5.514 4.486,10 10,10c0.338,0 0.671,-0.018 1,-0.051zM48,40c-4.411,0 -8,-3.589 -8,-8c0,-4.411 3.589,-8 8,-8c4.411,0 8,3.589 8,8c0,4.411 -3.589,8 -8,8z" fill="url(#color-8)"></path><path d="M52.293,28l-5.294,5.505l-2.292,-2.384l-1.414,1.471l2.292,2.384c0.39,0.406 0.902,0.608 1.415,0.608c0.513,0 1.025,-0.202 1.415,-0.608l5.292,-5.505z" fill="url(#color-9)"></path></g></g></svg>