<svg xmlns="http://www.w3.org/2000/svg" xmlns:xlink="http://www.w3.org/1999/xlink" viewBox="0,0,256,256" width="64px" height="64px"><defs><linearGradient x1="32" y1="8.25" x2="32" y2="56.76" gradientUnits="userSpaceOnUse" id="color-1"><stop offset="0" stop-color="#0000ff"></stop><stop offset="1" stop-color="#952ffa"></stop></linearGradient><linearGradient x1="32" y1="17.25" x2="32" y2="47.001" gradientUnits="userSpaceOnUse" id="color-2"><stop offset="0" stop-color="#0000ff"></stop><stop offset="1" stop-color="#952ffa" stop-opacity="0.7098"></stop></linearGradient><linearGradient x1="32" y1="8.25" x2="32" y2="56.76" gradientUnits="userSpaceOnUse" id="color-3"><stop offset="0" stop-color="#0000ff"></stop><stop offset="1" stop-color="#952ffa"></stop></linearGradient></defs><g fill="none" fill-rule="nonzero" stroke="none" stroke-width="1" stroke-linecap="butt" stroke-linejoin="miter" stroke-miterlimit="10" stroke-dasharray="" stroke-dashoffset="0" font-family="none" font-weight="none" font-size="none" text-anchor="none" style="mix-blend-mode: normal"><g transform="scale(4,4)"><path d="M51,56h-38c-2.757,0 -5,-2.243 -5,-5v-38c0,-2.757 2.243,-5 5,-5h38c2.757,0 5,2.243 5,5v38c0,2.757 -2.243,5 -5,5zM13,10c-1.654,0 -3,1.346 -3,3v38c0,1.654 1.346,3 3,3h38c1.654,0 3,-1.346 3,-3v-38c0,-1.654 -1.346,-3 -3,-3z" fill="url(#color-1)"></path><path d="M26.969,24h13.031v-2h-7v-4h-2v4h-4.031c-1.637,0 -2.969,1.332 -2.969,2.969v5.063c0,1.636 1.332,2.968 2.969,2.968h10.063c0.533,0 0.968,0.435 0.968,0.969v5.063c0,0.533 -0.435,0.968 -0.969,0.968h-13.031v2h7v4h2v-4h4.031c1.637,0 2.969,-1.332 2.969,-2.969v-5.063c0,-1.636 -1.332,-2.968 -2.969,-2.968h-10.062c-0.534,0 -0.969,-0.435 -0.969,-0.969v-5.063c0,-0.533 0.435,-0.968 0.969,-0.968z" fill="url(#color-2)"></path><path d="M50,52h-36c-1.103,0 -2,-0.897 -2,-2v-36c0,-1.103 0.897,-2 2,-2h36c1.103,0 2,0.897 2,2v36c0,1.103 -0.897,2 -2,2zM14,14v36h36v-36z" fill="url(#color-3)"></path></g></g></svg>