<svg xmlns="http://www.w3.org/2000/svg" xmlns:xlink="http://www.w3.org/1999/xlink" width="512" height="512" viewBox="0 0 512 512">
  <defs>
    <clipPath id="clip-path">
      <path id="Path_8" data-name="Path 8" d="M61,56H257.364v56.24H61Zm0,0" transform="translate(-61 -56)" fill="#0069ff"/>
    </clipPath>
    <clipPath id="clip-path-2">
      <path id="Path_10" data-name="Path 10" d="M98,55h51.473v50.136H98Zm0,0" transform="translate(-98 -55)" fill="#0069ff"/>
    </clipPath>
    <clipPath id="clip-boosty-favicon">
      <rect width="512" height="512"/>
    </clipPath>
  </defs>
  <g id="boosty-favicon" clip-path="url(#clip-boosty-favicon)">
    <text id="B" transform="translate(256 356)" font-size="368" font-family="SpaceGrotesk-Bold, Space Grotesk" font-weight="700"><tspan x="-122.176" y="0">B</tspan></text>
    <g id="boosty" transform="translate(152.874 371.551)">
      <g id="Group_19" data-name="Group 19" transform="translate(0 4.177)" clip-path="url(#clip-path)">
        <path id="Path_7" data-name="Path 7" d="M161.666,111.581c-66.765,0-98.1-43.489-99.389-45.352A6.342,6.342,0,0,1,63.86,57.35a6.444,6.444,0,0,1,8.928,1.583c1.143,1.617,29.05,39.888,88.881,39.888,44.129,0,80.966-32.151,81.32-32.477a6.436,6.436,0,0,1,9.058.523,6.348,6.348,0,0,1-.523,9.008C249.865,77.326,210.628,111.581,161.666,111.581Zm0,0" transform="translate(-60.63 -55.343)" fill="#0069ff"/>
      </g>
      <g id="Group_20" data-name="Group 20" transform="translate(154.585 0)" clip-path="url(#clip-path-2)">
        <path id="Path_9" data-name="Path 9" d="M131.081,102.435a6.431,6.431,0,0,1-6.234-7.914l6-24.17-23.909,5.941a6.379,6.379,0,0,1-3.117-12.371L138.069,55.4a6.475,6.475,0,0,1,6.09,1.661,6.367,6.367,0,0,1,1.7,6.054L137.3,97.585a6.409,6.409,0,0,1-6.223,4.85Zm0,0" transform="translate(-94.834 -54.326)" fill="#0069ff"/>
      </g>
    </g>
  </g>
</svg>
