<svg xmlns="http://www.w3.org/2000/svg" xmlns:xlink="http://www.w3.org/1999/xlink" width="300" height="100" viewBox="0 0 300 100">
  <defs>
    <clipPath id="clip-path">
      <path id="Path_8" data-name="Path 8" d="M61,56h70.934V76.316H61Zm0,0" transform="translate(-61 -56)" fill="#FFFF"/>
    </clipPath>
    <clipPath id="clip-path-2">
      <path id="Path_10" data-name="Path 10" d="M98,55h18.594V73.111H98Zm0,0" transform="translate(-98 -55)" fill="#FFFF"/>
    </clipPath>
    <clipPath id="clip-boosty-logo">
      <rect width="300" height="100"/>
    </clipPath>
  </defs>
  <g id="boosty-logo" clip-path="url(#clip-boosty-logo)">
    <path id="Path_241" data-name="Path 241" d="M3.588,0V-9.048h7.176v-36.5H3.588V-54.6h28.08a20.929,20.929,0,0,1,8.7,1.677,13.422,13.422,0,0,1,5.772,4.758A12.919,12.919,0,0,1,48.2-40.794v.78a11.925,11.925,0,0,1-1.4,6.123,11.134,11.134,0,0,1-3.315,3.666,14.417,14.417,0,0,1-3.627,1.833v1.4A14.03,14.03,0,0,1,43.6-25.233a10.87,10.87,0,0,1,3.471,3.7,12.221,12.221,0,0,1,1.443,6.318v.78A13.918,13.918,0,0,1,46.41-6.669,13.553,13.553,0,0,1,40.6-1.716,20.316,20.316,0,0,1,31.98,0ZM21.06-9.36h9.672A8.472,8.472,0,0,0,36.153-11a5.622,5.622,0,0,0,2.067-4.68v-.78a5.669,5.669,0,0,0-2.028-4.68,8.438,8.438,0,0,0-5.46-1.638H21.06Zm0-22.776h9.516a8.216,8.216,0,0,0,5.265-1.638A5.453,5.453,0,0,0,37.908-38.3v-.78a5.471,5.471,0,0,0-2.028-4.563,8.317,8.317,0,0,0-5.3-1.6H21.06ZM70.98,1.092a22.561,22.561,0,0,1-10.374-2.34,17.548,17.548,0,0,1-7.254-6.786A20.49,20.49,0,0,1,50.7-18.72v-1.248a20.49,20.49,0,0,1,2.652-10.686,17.548,17.548,0,0,1,7.254-6.786A22.561,22.561,0,0,1,70.98-39.78a22.561,22.561,0,0,1,10.374,2.34,17.548,17.548,0,0,1,7.254,6.786A20.49,20.49,0,0,1,91.26-19.968v1.248A20.49,20.49,0,0,1,88.608-8.034a17.548,17.548,0,0,1-7.254,6.786A22.561,22.561,0,0,1,70.98,1.092Zm0-8.736a10.221,10.221,0,0,0,7.488-2.925q2.964-2.925,2.964-8.385v-.78q0-5.46-2.925-8.385a10.188,10.188,0,0,0-7.527-2.925,10.221,10.221,0,0,0-7.488,2.925q-2.964,2.925-2.964,8.385v.78q0,5.46,2.964,8.385A10.221,10.221,0,0,0,70.98-7.644Zm43.056,8.736a22.561,22.561,0,0,1-10.374-2.34,17.548,17.548,0,0,1-7.254-6.786A20.49,20.49,0,0,1,93.756-18.72v-1.248a20.49,20.49,0,0,1,2.652-10.686,17.548,17.548,0,0,1,7.254-6.786,22.561,22.561,0,0,1,10.374-2.34,22.561,22.561,0,0,1,10.374,2.34,17.548,17.548,0,0,1,7.254,6.786,20.49,20.49,0,0,1,2.652,10.686v1.248a20.49,20.49,0,0,1-2.652,10.686,17.548,17.548,0,0,1-7.254,6.786A22.561,22.561,0,0,1,114.036,1.092Zm0-8.736a10.221,10.221,0,0,0,7.488-2.925q2.964-2.925,2.964-8.385v-.78q0-5.46-2.925-8.385a10.188,10.188,0,0,0-7.527-2.925,10.221,10.221,0,0,0-7.488,2.925q-2.964,2.925-2.964,8.385v.78q0,5.46,2.964,8.385A10.221,10.221,0,0,0,114.036-7.644Zm40.716,8.736q-7.566,0-12.4-3.276a13.469,13.469,0,0,1-5.85-9.36l9.048-2.34a9.613,9.613,0,0,0,1.833,4.29,7.078,7.078,0,0,0,3.2,2.223,12.654,12.654,0,0,0,4.173.663,8.57,8.57,0,0,0,5.07-1.209,3.615,3.615,0,0,0,1.638-3,3.088,3.088,0,0,0-1.56-2.769,14.907,14.907,0,0,0-4.992-1.6l-2.184-.39a39.351,39.351,0,0,1-7.41-2.145,13.51,13.51,0,0,1-5.382-3.783,9.381,9.381,0,0,1-2.028-6.24,10.3,10.3,0,0,1,4.212-8.853q4.212-3.081,11.076-3.081a18.872,18.872,0,0,1,10.764,2.886,13.3,13.3,0,0,1,5.616,7.566l-9.126,2.808a6.29,6.29,0,0,0-2.535-4.212,8.451,8.451,0,0,0-4.719-1.248,7.819,7.819,0,0,0-4.29.975,3.057,3.057,0,0,0-1.482,2.691,2.978,2.978,0,0,0,1.56,2.769,13.118,13.118,0,0,0,4.212,1.365l2.184.39a48.005,48.005,0,0,1,7.917,2.067,13.228,13.228,0,0,1,5.616,3.666,9.473,9.473,0,0,1,2.067,6.435,11.068,11.068,0,0,1-4.407,9.4Q162.162,1.092,154.752,1.092ZM188.916,0a8.387,8.387,0,0,1-6.2-2.379,8.591,8.591,0,0,1-2.379-6.357v-21.84h-9.672v-8.112h9.672V-50.7h9.828v12.012h10.608v8.112H190.164v20.124q0,2.34,2.184,2.34h7.488V0ZM209.2,15.6V7.02h21.06q2.184,0,2.184-2.34V-5.07h-1.4a9.612,9.612,0,0,1-1.95,2.652A10.02,10.02,0,0,1,225.5-.234a16.478,16.478,0,0,1-5.772.858,14.914,14.914,0,0,1-7.917-2.067,14.032,14.032,0,0,1-5.265-5.733,18.269,18.269,0,0,1-1.872-8.424V-38.688H214.5V-16.38q0,4.368,2.145,6.552a8.2,8.2,0,0,0,6.123,2.184,8.621,8.621,0,0,0,7.02-3q2.5-3,2.5-8.385V-38.688h9.828V6.864a8.672,8.672,0,0,1-2.34,6.357,8.357,8.357,0,0,1-6.24,2.379Z" transform="translate(26 64)"/>
    <g id="boosty" transform="translate(85.147 70.69)">
      <g id="Group_19" data-name="Group 19" transform="translate(0 1.509)" clip-path="url(#clip-path)">
        <path id="Path_7" data-name="Path 7" d="M97.439,76.21C73.321,76.21,62,60.5,61.536,59.827a2.291,2.291,0,0,1,.572-3.207,2.328,2.328,0,0,1,3.225.572c.413.584,10.494,14.409,32.107,14.409,15.941,0,29.248-11.614,29.376-11.732a2.325,2.325,0,0,1,3.272.189,2.293,2.293,0,0,1-.189,3.254C129.3,63.836,115.126,76.21,97.439,76.21Zm0,0" transform="translate(-60.941 -55.895)" fill="#FFFF"/>
      </g>
      <g id="Group_20" data-name="Group 20" transform="translate(55.842)" clip-path="url(#clip-path-2)">
        <path id="Path_9" data-name="Path 9" d="M110.591,72.271a2.323,2.323,0,0,1-2.252-2.859l2.169-8.731-8.637,2.146a2.3,2.3,0,1,1-1.126-4.469l12.37-3.077a2.339,2.339,0,0,1,2.2.6,2.3,2.3,0,0,1,.613,2.187l-3.089,12.451A2.315,2.315,0,0,1,110.591,72.271Zm0,0" transform="translate(-97.497 -54.892)" fill="#FFFF"/>
      </g>
    </g>
  </g>
</svg>
