<svg xmlns="http://www.w3.org/2000/svg" xmlns:xlink="http://www.w3.org/1999/xlink" width="916" zoomAndPan="magnify" viewBox="0 0 687 227.999995" height="304" preserveAspectRatio="xMidYMid meet" version="1.0"><defs><clipPath id="f301fee257"><path d="M 216.039062 158 L 354 158 L 354 197.761719 L 216.039062 197.761719 Z M 216.039062 158 " clip-rule="nonzero"/></clipPath></defs><path fill="#ffffff" d="M 106.292969 141.433594 L 106.292969 123.5625 L 120.46875 123.5625 L 120.46875 51.464844 L 106.292969 51.464844 L 106.292969 33.585938 L 161.757812 33.585938 C 167.722656 33.449219 173.449219 34.554688 178.9375 36.894531 C 181.246094 37.890625 183.371094 39.1875 185.3125 40.785156 C 187.25 42.382812 188.929688 44.21875 190.347656 46.292969 C 191.746094 48.460938 192.792969 50.785156 193.484375 53.265625 C 194.179688 55.746094 194.488281 58.277344 194.417969 60.855469 L 194.417969 62.394531 C 194.503906 64.496094 194.3125 66.574219 193.839844 68.628906 C 193.371094 70.679688 192.640625 72.632812 191.644531 74.488281 C 190.011719 77.398438 187.828125 79.8125 185.097656 81.730469 C 182.878906 83.28125 180.492188 84.492188 177.929688 85.359375 L 177.929688 88.125 C 180.566406 88.917969 183.03125 90.074219 185.320312 91.601562 C 188.191406 93.488281 190.476562 95.925781 192.179688 98.910156 C 193.207031 100.824219 193.964844 102.839844 194.449219 104.957031 C 194.929688 107.074219 195.125 109.21875 195.03125 111.386719 L 195.03125 112.929688 C 195.109375 115.632812 194.796875 118.292969 194.089844 120.90625 C 193.382812 123.515625 192.3125 125.972656 190.882812 128.269531 C 189.476562 130.414062 187.800781 132.320312 185.847656 133.984375 C 183.894531 135.648438 181.75 137.007812 179.40625 138.054688 C 173.980469 140.441406 168.304688 141.570312 162.378906 141.441406 Z M 140.816406 122.945312 L 159.917969 122.945312 C 161.835938 123.035156 163.714844 122.804688 165.550781 122.25 C 167.390625 121.691406 169.082031 120.84375 170.628906 119.707031 C 171.308594 119.152344 171.917969 118.527344 172.449219 117.828125 C 172.984375 117.128906 173.425781 116.378906 173.78125 115.578125 C 174.136719 114.773438 174.390625 113.9375 174.550781 113.074219 C 174.707031 112.210938 174.757812 111.339844 174.710938 110.460938 L 174.710938 108.921875 C 174.761719 108.046875 174.710938 107.179688 174.554688 106.320312 C 174.402344 105.457031 174.152344 104.625 173.804688 103.824219 C 173.457031 103.019531 173.019531 102.269531 172.496094 101.566406 C 171.972656 100.867188 171.375 100.238281 170.703125 99.675781 C 169.148438 98.527344 167.445312 97.675781 165.589844 97.121094 C 163.738281 96.5625 161.847656 96.335938 159.917969 96.441406 L 140.816406 96.441406 Z M 140.816406 77.957031 L 159.609375 77.957031 C 161.480469 78.03125 163.304688 77.792969 165.089844 77.238281 C 166.875 76.679688 168.515625 75.84375 170.011719 74.71875 C 170.679688 74.191406 171.28125 73.589844 171.808594 72.917969 C 172.335938 72.246094 172.777344 71.519531 173.128906 70.742188 C 173.484375 69.964844 173.746094 69.160156 173.90625 68.320312 C 174.070312 67.480469 174.132812 66.632812 174.09375 65.78125 L 174.09375 64.242188 C 174.140625 63.382812 174.085938 62.535156 173.933594 61.691406 C 173.777344 60.847656 173.527344 60.03125 173.179688 59.25 C 172.828125 58.464844 172.394531 57.734375 171.871094 57.054688 C 171.347656 56.375 170.753906 55.765625 170.085938 55.226562 C 168.574219 54.117188 166.917969 53.289062 165.121094 52.75 C 163.324219 52.207031 161.492188 51.976562 159.617188 52.066406 L 140.816406 52.066406 Z M 239.410156 143.59375 C 235.863281 143.648438 232.355469 143.289062 228.890625 142.507812 C 225.429688 141.726562 222.105469 140.546875 218.925781 138.972656 C 215.941406 137.472656 213.230469 135.585938 210.792969 133.304688 C 208.355469 131.023438 206.289062 128.445312 204.597656 125.566406 C 202.777344 122.351562 201.421875 118.953125 200.53125 115.371094 C 199.644531 111.785156 199.25 108.148438 199.355469 104.457031 L 199.355469 101.992188 C 199.25 98.300781 199.644531 94.664062 200.53125 91.082031 C 201.421875 87.496094 202.777344 84.097656 204.597656 80.886719 C 206.289062 78.007812 208.355469 75.429688 210.792969 73.148438 C 213.230469 70.867188 215.941406 68.976562 218.925781 67.480469 C 222.105469 65.90625 225.429688 64.726562 228.890625 63.945312 C 232.355469 63.164062 235.863281 62.800781 239.410156 62.859375 C 242.960938 62.800781 246.46875 63.164062 249.933594 63.945312 C 253.394531 64.726562 256.71875 65.90625 259.898438 67.480469 C 262.882812 68.976562 265.59375 70.867188 268.03125 73.148438 C 270.46875 75.429688 272.535156 78.007812 274.226562 80.886719 C 276.046875 84.097656 277.402344 87.496094 278.292969 91.082031 C 279.179688 94.664062 279.574219 98.300781 279.464844 101.992188 L 279.464844 104.457031 C 279.574219 108.148438 279.179688 111.785156 278.292969 115.371094 C 277.402344 118.953125 276.046875 122.351562 274.226562 125.566406 C 272.535156 128.445312 270.46875 131.023438 268.03125 133.304688 C 265.59375 135.585938 262.882812 137.472656 259.898438 138.972656 C 256.71875 140.546875 253.394531 141.726562 249.933594 142.507812 C 246.46875 143.289062 242.960938 143.648438 239.410156 143.59375 Z M 239.410156 126.335938 C 240.773438 126.378906 242.128906 126.285156 243.472656 126.054688 C 244.816406 125.820312 246.125 125.457031 247.394531 124.960938 C 248.664062 124.464844 249.871094 123.84375 251.015625 123.105469 C 252.164062 122.363281 253.222656 121.515625 254.195312 120.558594 C 255.21875 119.449219 256.121094 118.246094 256.902344 116.953125 C 257.683594 115.660156 258.324219 114.304688 258.828125 112.878906 C 259.332031 111.457031 259.683594 109.996094 259.890625 108.5 C 260.097656 107.003906 260.148438 105.5 260.050781 103.996094 L 260.050781 102.453125 C 260.148438 100.949219 260.097656 99.453125 259.898438 97.957031 C 259.695312 96.464844 259.34375 95.007812 258.847656 93.582031 C 258.351562 92.160156 257.71875 90.800781 256.949219 89.503906 C 256.179688 88.210938 255.285156 87.003906 254.273438 85.890625 C 253.296875 84.925781 252.230469 84.074219 251.078125 83.328125 C 249.929688 82.582031 248.714844 81.960938 247.433594 81.464844 C 246.15625 80.96875 244.839844 80.605469 243.488281 80.378906 C 242.136719 80.148438 240.773438 80.0625 239.402344 80.113281 C 238.039062 80.070312 236.6875 80.164062 235.34375 80.394531 C 234 80.625 232.691406 80.992188 231.421875 81.488281 C 230.152344 81.984375 228.945312 82.601562 227.796875 83.34375 C 226.652344 84.085938 225.59375 84.933594 224.621094 85.890625 C 223.597656 87 222.695312 88.199219 221.914062 89.492188 C 221.132812 90.785156 220.492188 92.144531 219.988281 93.570312 C 219.484375 94.992188 219.132812 96.453125 218.925781 97.949219 C 218.71875 99.445312 218.667969 100.945312 218.765625 102.453125 L 218.765625 103.996094 C 218.667969 105.5 218.71875 107.003906 218.925781 108.5 C 219.132812 109.996094 219.484375 111.457031 219.988281 112.878906 C 220.492188 114.304688 221.132812 115.660156 221.914062 116.953125 C 222.695312 118.246094 223.597656 119.449219 224.621094 120.558594 C 225.59375 121.515625 226.65625 122.363281 227.800781 123.105469 C 228.945312 123.847656 230.152344 124.464844 231.425781 124.960938 C 232.695312 125.457031 234.003906 125.824219 235.347656 126.054688 C 236.695312 126.285156 238.046875 126.378906 239.410156 126.335938 Z M 324.460938 143.59375 C 320.910156 143.648438 317.40625 143.289062 313.941406 142.507812 C 310.476562 141.726562 307.15625 140.546875 303.972656 138.972656 C 300.992188 137.472656 298.28125 135.585938 295.839844 133.304688 C 293.402344 131.023438 291.339844 128.445312 289.644531 125.566406 C 287.824219 122.351562 286.472656 118.953125 285.582031 115.371094 C 284.691406 111.785156 284.300781 108.148438 284.40625 104.457031 L 284.40625 101.992188 C 284.300781 98.300781 284.691406 94.664062 285.582031 91.082031 C 286.472656 87.496094 287.824219 84.097656 289.644531 80.886719 C 291.339844 78.007812 293.402344 75.429688 295.839844 73.148438 C 298.28125 70.867188 300.992188 68.976562 303.972656 67.480469 C 307.15625 65.90625 310.476562 64.726562 313.941406 63.945312 C 317.40625 63.164062 320.910156 62.800781 324.460938 62.859375 C 328.011719 62.800781 331.519531 63.164062 334.980469 63.945312 C 338.445312 64.726562 341.769531 65.90625 344.949219 67.480469 C 347.933594 68.976562 350.644531 70.867188 353.082031 73.148438 C 355.519531 75.429688 357.585938 78.007812 359.277344 80.886719 C 361.097656 84.097656 362.453125 87.496094 363.339844 91.082031 C 364.230469 94.664062 364.621094 98.300781 364.515625 101.992188 L 364.515625 104.457031 C 364.621094 108.148438 364.230469 111.785156 363.339844 115.371094 C 362.453125 118.953125 361.097656 122.351562 359.277344 125.566406 C 357.585938 128.445312 355.519531 131.023438 353.082031 133.304688 C 350.644531 135.585938 347.933594 137.472656 344.949219 138.972656 C 341.769531 140.546875 338.445312 141.726562 334.980469 142.507812 C 331.519531 143.289062 328.011719 143.648438 324.460938 143.59375 Z M 324.460938 126.335938 C 325.824219 126.378906 327.179688 126.285156 328.523438 126.054688 C 329.867188 125.820312 331.175781 125.457031 332.445312 124.960938 C 333.714844 124.464844 334.921875 123.84375 336.066406 123.105469 C 337.210938 122.363281 338.269531 121.515625 339.242188 120.558594 C 340.269531 119.449219 341.171875 118.246094 341.953125 116.953125 C 342.730469 115.660156 343.375 114.304688 343.875 112.878906 C 344.378906 111.457031 344.734375 109.996094 344.941406 108.5 C 345.148438 107.003906 345.199219 105.5 345.101562 103.996094 L 345.101562 102.453125 C 345.199219 100.949219 345.148438 99.453125 344.945312 97.957031 C 344.746094 96.464844 344.394531 95.007812 343.898438 93.582031 C 343.402344 92.160156 342.769531 90.800781 342 89.503906 C 341.226562 88.210938 340.335938 87.003906 339.320312 85.890625 C 338.34375 84.925781 337.28125 84.074219 336.128906 83.328125 C 334.976562 82.582031 333.761719 81.960938 332.484375 81.464844 C 331.207031 80.96875 329.890625 80.605469 328.539062 80.378906 C 327.1875 80.148438 325.824219 80.0625 324.453125 80.113281 C 323.089844 80.070312 321.738281 80.164062 320.394531 80.394531 C 319.046875 80.625 317.742188 80.992188 316.472656 81.488281 C 315.199219 81.984375 313.992188 82.601562 312.847656 83.34375 C 311.703125 84.085938 310.644531 84.933594 309.671875 85.890625 C 308.648438 87 307.746094 88.199219 306.964844 89.492188 C 306.183594 90.785156 305.542969 92.144531 305.039062 93.570312 C 304.535156 94.992188 304.179688 96.453125 303.976562 97.949219 C 303.769531 99.445312 303.714844 100.945312 303.816406 102.453125 L 303.816406 103.996094 C 303.714844 105.5 303.769531 107.003906 303.976562 108.5 C 304.179688 109.996094 304.535156 111.457031 305.039062 112.878906 C 305.542969 114.304688 306.183594 115.660156 306.964844 116.953125 C 307.746094 118.246094 308.648438 119.449219 309.671875 120.558594 C 310.644531 121.515625 311.703125 122.363281 312.847656 123.105469 C 313.992188 123.84375 315.199219 124.464844 316.472656 124.960938 C 317.742188 125.457031 319.046875 125.820312 320.394531 126.054688 C 321.738281 126.285156 323.089844 126.378906 324.453125 126.335938 Z M 404.886719 143.59375 C 400.570312 143.773438 396.324219 143.3125 392.148438 142.207031 C 387.972656 141.101562 384.054688 139.402344 380.394531 137.109375 C 378.832031 136.0625 377.398438 134.867188 376.089844 133.515625 C 374.78125 132.167969 373.628906 130.695312 372.632812 129.101562 C 371.636719 127.511719 370.820312 125.828125 370.179688 124.0625 C 369.539062 122.296875 369.09375 120.484375 368.835938 118.621094 L 386.710938 114 C 387.214844 117.128906 388.425781 119.953125 390.339844 122.476562 C 392.027344 124.542969 394.136719 126.003906 396.660156 126.867188 C 399.335938 127.761719 402.082031 128.195312 404.902344 128.160156 C 406.65625 128.292969 408.386719 128.15625 410.097656 127.746094 C 411.804688 127.339844 413.414062 126.683594 414.917969 125.773438 C 415.921875 125.121094 416.707031 124.265625 417.28125 123.21875 C 417.855469 122.167969 418.144531 121.042969 418.15625 119.847656 C 418.171875 119.296875 418.113281 118.75 417.980469 118.214844 C 417.847656 117.675781 417.644531 117.167969 417.371094 116.6875 C 417.101562 116.203125 416.769531 115.769531 416.378906 115.375 C 415.988281 114.984375 415.554688 114.652344 415.074219 114.378906 C 411.976562 112.738281 408.691406 111.683594 405.21875 111.21875 L 400.902344 110.4375 C 395.886719 109.507812 391.007812 108.09375 386.265625 106.203125 C 382.097656 104.601562 378.554688 102.109375 375.632812 98.730469 C 374.246094 96.984375 373.207031 95.050781 372.519531 92.929688 C 371.828125 90.808594 371.53125 88.632812 371.628906 86.402344 C 371.539062 84.714844 371.660156 83.042969 371.988281 81.382812 C 372.320312 79.726562 372.847656 78.132812 373.574219 76.605469 C 374.300781 75.078125 375.203125 73.664062 376.28125 72.363281 C 377.359375 71.0625 378.582031 69.914062 379.945312 68.917969 C 383.171875 66.753906 386.65625 65.152344 390.394531 64.113281 C 394.136719 63.074219 397.945312 62.644531 401.824219 62.828125 C 405.574219 62.6875 409.261719 63.105469 412.886719 64.078125 C 416.511719 65.050781 419.914062 66.535156 423.089844 68.535156 C 425.789062 70.265625 428.09375 72.417969 430.003906 74.992188 C 431.917969 77.566406 433.308594 80.394531 434.183594 83.480469 L 416.15625 89.027344 C 415.921875 87.359375 415.371094 85.804688 414.5 84.359375 C 413.632812 82.914062 412.515625 81.699219 411.148438 80.707031 C 409.753906 79.847656 408.257812 79.207031 406.671875 78.789062 C 405.085938 78.367188 403.46875 78.1875 401.828125 78.242188 C 398.816406 78.054688 395.992188 78.699219 393.355469 80.167969 C 392.898438 80.445312 392.484375 80.773438 392.113281 81.15625 C 391.746094 81.539062 391.429688 81.964844 391.175781 82.433594 C 390.917969 82.898438 390.726562 83.390625 390.597656 83.910156 C 390.472656 84.425781 390.414062 84.953125 390.425781 85.484375 C 390.398438 86.039062 390.449219 86.589844 390.578125 87.128906 C 390.703125 87.667969 390.902344 88.179688 391.175781 88.664062 C 391.449219 89.148438 391.785156 89.585938 392.179688 89.976562 C 392.578125 90.363281 393.019531 90.691406 393.507812 90.953125 C 396.125 92.328125 398.898438 93.226562 401.828125 93.652344 L 406.140625 94.429688 C 411.472656 95.34375 416.683594 96.707031 421.78125 98.511719 C 426.109375 99.957031 429.808594 102.371094 432.875 105.753906 C 434.3125 107.546875 435.382812 109.539062 436.085938 111.730469 C 436.792969 113.921875 437.082031 116.164062 436.957031 118.460938 C 437.046875 120.246094 436.917969 122.015625 436.574219 123.769531 C 436.226562 125.523438 435.675781 127.210938 434.917969 128.828125 C 434.15625 130.449219 433.214844 131.949219 432.085938 133.335938 C 430.960938 134.726562 429.679688 135.957031 428.25 137.027344 C 422.433594 141.40625 414.644531 143.59375 404.886719 143.59375 Z M 472.371094 141.433594 C 471.246094 141.480469 470.125 141.414062 469.011719 141.230469 C 467.898438 141.046875 466.816406 140.753906 465.765625 140.347656 C 464.710938 139.945312 463.710938 139.4375 462.761719 138.832031 C 461.8125 138.222656 460.933594 137.523438 460.125 136.734375 C 459.328125 135.902344 458.625 135 458.011719 134.023438 C 457.398438 133.046875 456.886719 132.019531 456.484375 130.941406 C 456.082031 129.863281 455.789062 128.753906 455.609375 127.613281 C 455.433594 126.476562 455.371094 125.328125 455.425781 124.179688 L 455.425781 81.046875 L 436.320312 81.046875 L 436.320312 65.019531 L 455.425781 65.019531 L 455.425781 41.292969 L 474.839844 41.292969 L 474.839844 65.019531 L 495.796875 65.019531 L 495.796875 81.046875 L 474.839844 81.046875 L 474.839844 120.796875 C 474.839844 123.878906 476.28125 125.417969 479.15625 125.417969 L 493.9375 125.417969 L 493.9375 141.441406 Z M 512.445312 172.25 L 512.445312 155.300781 L 554.046875 155.300781 C 556.921875 155.300781 558.359375 153.761719 558.359375 150.679688 L 558.359375 131.421875 L 555.597656 131.421875 C 554.617188 133.390625 553.332031 135.136719 551.746094 136.660156 C 549.6875 138.605469 547.320312 140.046875 544.648438 140.976562 C 540.945312 142.226562 537.140625 142.792969 533.234375 142.671875 C 530.492188 142.734375 527.789062 142.417969 525.132812 141.722656 C 522.472656 141.03125 519.964844 139.984375 517.597656 138.589844 C 515.367188 137.230469 513.367188 135.589844 511.597656 133.664062 C 509.828125 131.738281 508.363281 129.605469 507.199219 127.265625 C 504.617188 122.019531 503.386719 116.472656 503.5 110.625 L 503.5 65.015625 L 522.910156 65.015625 L 522.910156 109.078125 C 522.726562 111.433594 523.003906 113.730469 523.738281 115.972656 C 524.472656 118.214844 525.609375 120.234375 527.148438 122.023438 C 528.78125 123.546875 530.648438 124.679688 532.75 125.429688 C 534.851562 126.179688 537.015625 126.484375 539.242188 126.339844 C 540.546875 126.410156 541.84375 126.332031 543.132812 126.105469 C 544.421875 125.878906 545.664062 125.507812 546.867188 124.996094 C 548.070312 124.480469 549.199219 123.835938 550.253906 123.0625 C 551.304688 122.289062 552.257812 121.40625 553.109375 120.414062 C 554.882812 118.03125 556.191406 115.414062 557.039062 112.566406 C 557.886719 109.71875 558.21875 106.8125 558.035156 103.847656 L 558.035156 65.015625 L 577.449219 65.015625 L 577.449219 155.007812 C 577.5625 157.324219 577.21875 159.574219 576.417969 161.753906 C 575.613281 163.933594 574.417969 165.871094 572.828125 167.5625 C 572.019531 168.359375 571.136719 169.0625 570.179688 169.671875 C 569.222656 170.285156 568.214844 170.792969 567.15625 171.199219 C 566.09375 171.601562 565.003906 171.894531 563.882812 172.074219 C 562.761719 172.253906 561.636719 172.316406 560.503906 172.261719 Z M 512.445312 172.25 " fill-opacity="1" fill-rule="nonzero"/><g clip-path="url(#f301fee257)"><path fill="#ffffff" d="M 288.132812 197.761719 C 240.492188 197.761719 218.128906 166.726562 217.210938 165.398438 C 217.039062 165.152344 216.894531 164.894531 216.773438 164.621094 C 216.652344 164.347656 216.558594 164.0625 216.492188 163.773438 C 216.429688 163.480469 216.390625 163.183594 216.386719 162.882812 C 216.378906 162.585938 216.402344 162.289062 216.457031 161.992188 C 216.507812 161.699219 216.589844 161.414062 216.699219 161.132812 C 216.808594 160.855469 216.945312 160.589844 217.105469 160.339844 C 217.269531 160.085938 217.453125 159.855469 217.660156 159.640625 C 217.871094 159.425781 218.097656 159.230469 218.34375 159.0625 C 218.589844 158.890625 218.851562 158.746094 219.125 158.628906 C 219.402344 158.507812 219.683594 158.417969 219.976562 158.351562 C 220.273438 158.289062 220.566406 158.253906 220.867188 158.246094 C 221.167969 158.242188 221.464844 158.265625 221.761719 158.316406 C 222.054688 158.371094 222.34375 158.449219 222.621094 158.558594 C 222.902344 158.667969 223.167969 158.804688 223.421875 158.964844 C 223.675781 159.125 223.910156 159.308594 224.128906 159.515625 C 224.34375 159.722656 224.539062 159.949219 224.710938 160.191406 C 225.53125 161.347656 245.441406 188.65625 288.132812 188.65625 C 319.621094 188.65625 345.910156 165.714844 346.160156 165.480469 C 346.386719 165.28125 346.628906 165.105469 346.886719 164.953125 C 347.144531 164.804688 347.417969 164.679688 347.703125 164.582031 C 347.984375 164.480469 348.277344 164.414062 348.574219 164.371094 C 348.871094 164.328125 349.167969 164.316406 349.46875 164.335938 C 349.769531 164.351562 350.0625 164.398438 350.355469 164.472656 C 350.644531 164.550781 350.925781 164.652344 351.195312 164.78125 C 351.46875 164.914062 351.722656 165.066406 351.960938 165.25 C 352.203125 165.429688 352.421875 165.628906 352.625 165.855469 C 352.824219 166.078125 353 166.316406 353.152344 166.574219 C 353.304688 166.832031 353.429688 167.101562 353.53125 167.382812 C 353.628906 167.667969 353.699219 167.957031 353.742188 168.253906 C 353.78125 168.550781 353.792969 168.847656 353.777344 169.148438 C 353.761719 169.445312 353.714844 169.738281 353.636719 170.03125 C 353.5625 170.320312 353.457031 170.597656 353.328125 170.867188 C 353.195312 171.136719 353.039062 171.390625 352.859375 171.628906 C 352.675781 171.867188 352.472656 172.085938 352.25 172.28125 C 351.066406 173.316406 323.070312 197.761719 288.132812 197.761719 Z M 288.132812 197.761719 " fill-opacity="1" fill-rule="nonzero"/></g><path fill="#ffffff" d="M 352.207031 188.980469 C 351.863281 188.980469 351.519531 188.941406 351.183594 188.863281 C 350.847656 188.785156 350.523438 188.667969 350.214844 188.519531 C 349.902344 188.367188 349.613281 188.183594 349.34375 187.964844 C 349.074219 187.75 348.832031 187.503906 348.621094 187.230469 C 348.40625 186.960938 348.226562 186.667969 348.078125 186.355469 C 347.929688 186.042969 347.816406 185.71875 347.742188 185.382812 C 347.667969 185.042969 347.632812 184.703125 347.636719 184.355469 C 347.640625 184.011719 347.679688 183.667969 347.761719 183.332031 L 352.042969 166.085938 L 334.984375 170.328125 C 334.699219 170.386719 334.410156 170.417969 334.121094 170.421875 C 333.832031 170.425781 333.542969 170.402344 333.257812 170.347656 C 332.96875 170.296875 332.691406 170.21875 332.421875 170.113281 C 332.152344 170.007812 331.890625 169.878906 331.644531 169.726562 C 331.398438 169.570312 331.171875 169.394531 330.957031 169.195312 C 330.746094 169 330.554688 168.78125 330.382812 168.546875 C 330.214844 168.3125 330.066406 168.0625 329.941406 167.800781 C 329.820312 167.539062 329.722656 167.265625 329.652344 166.984375 C 329.582031 166.703125 329.535156 166.417969 329.519531 166.125 C 329.503906 165.835938 329.515625 165.546875 329.554688 165.257812 C 329.59375 164.972656 329.660156 164.691406 329.753906 164.414062 C 329.84375 164.140625 329.964844 163.875 330.105469 163.625 C 330.25 163.371094 330.414062 163.132812 330.605469 162.914062 C 330.792969 162.691406 331 162.492188 331.226562 162.3125 C 331.457031 162.128906 331.699219 161.972656 331.953125 161.835938 C 332.210938 161.703125 332.480469 161.59375 332.757812 161.511719 L 357.191406 155.429688 C 357.972656 155.238281 358.746094 155.246094 359.519531 155.457031 C 360.292969 155.667969 360.964844 156.054688 361.539062 156.617188 C 362.105469 157.179688 362.5 157.847656 362.714844 158.617188 C 362.929688 159.386719 362.941406 160.160156 362.75 160.9375 L 356.648438 185.53125 C 356.523438 186.027344 356.324219 186.488281 356.042969 186.914062 C 355.765625 187.34375 355.425781 187.714844 355.023438 188.027344 C 354.621094 188.339844 354.179688 188.578125 353.695312 188.746094 C 353.214844 188.910156 352.71875 188.992188 352.207031 188.992188 Z M 352.207031 188.980469 " fill-opacity="1" fill-rule="nonzero"/></svg>