<svg xmlns="http://www.w3.org/2000/svg" xmlns:xlink="http://www.w3.org/1999/xlink" width="1080" height="1080" viewBox="0 0 1080 1080">
  <defs>
    <linearGradient id="linear-gradient" x1="0.5" x2="0.5" y2="1" gradientUnits="objectBoundingBox">
      <stop offset="0" stop-color="blue"/>
      <stop offset="1" stop-color="#8000ff"/>
    </linearGradient>
    <linearGradient id="linear-gradient-3" x1="0.5" x2="0.5" y2="1" gradientUnits="objectBoundingBox">
      <stop offset="0" stop-color="#f3e7ff"/>
      <stop offset="0.606" stop-color="#dcdcff"/>
      <stop offset="1" stop-color="#fff"/>
    </linearGradient>
    <filter id="Rectangle_27" x="104.5" y="-80.5" width="892" height="1301" filterUnits="userSpaceOnUse">
      <feOffset dy="30" input="SourceAlpha"/>
      <feGaussianBlur stdDeviation="49.5" result="blur"/>
      <feFlood flood-opacity="0.161"/>
      <feComposite operator="in" in2="blur"/>
      <feComposite in="SourceGraphic"/>
    </filter>
    <filter id="Rectangle_28" x="64" y="431" width="952" height="348" filterUnits="userSpaceOnUse">
      <feOffset dy="30" input="SourceAlpha"/>
      <feGaussianBlur stdDeviation="30" result="blur-2"/>
      <feFlood flood-opacity="0.161"/>
      <feComposite operator="in" in2="blur-2"/>
      <feComposite in="SourceGraphic"/>
    </filter>
    <clipPath id="clip-path">
      <rect id="Rectangle_30" data-name="Rectangle 30" width="34" height="23" transform="translate(-0.2 0.4)"/>
    </clipPath>
    <clipPath id="clip-path-2">
      <rect id="Rectangle_31" data-name="Rectangle 31" width="27" height="27" transform="translate(0 0)"/>
    </clipPath>
    <clipPath id="clip-path-3">
      <rect id="Rectangle_32" data-name="Rectangle 32" width="139" height="140" transform="translate(-0.344 0.213)"/>
    </clipPath>
    <filter id="Rectangle_28-2" x="64" y="630" width="952" height="348" filterUnits="userSpaceOnUse">
      <feOffset dy="30" input="SourceAlpha"/>
      <feGaussianBlur stdDeviation="30" result="blur-3"/>
      <feFlood flood-opacity="0.161"/>
      <feComposite operator="in" in2="blur-3"/>
      <feComposite in="SourceGraphic"/>
    </filter>
    <clipPath id="clip-path-4">
      <path id="Path_8" data-name="Path 8" d="M61,56h58.84V72.852H61Zm0,0" transform="translate(-61 -56)" fill="url(#linear-gradient)"/>
    </clipPath>
    <clipPath id="clip-path-5">
      <path id="Path_10" data-name="Path 10" d="M98,55h15.424V70.023H98Zm0,0" transform="translate(-98 -55)" fill="url(#linear-gradient)"/>
    </clipPath>
    <clipPath id="clip-boosty-web-creative-1">
      <rect width="1080" height="1080"/>
    </clipPath>
  </defs>
  <g id="boosty-web-creative-1" clip-path="url(#clip-boosty-web-creative-1)">
    <g transform="matrix(1, 0, 0, 1, 0, 0)" filter="url(#Rectangle_27)">
      <rect id="Rectangle_27-2" data-name="Rectangle 27" width="595" height="1004" rx="50" transform="translate(253 38)" fill="url(#linear-gradient-3)"/>
    </g>
    <text id="_10_:_46" data-name="10 : 46" transform="translate(284 108)" font-size="21" font-family="Montserrat-SemiBold, Montserrat" font-weight="600" letter-spacing="-0.06em"><tspan x="0" y="0">10 : 54</tspan></text>
    <path id="Joseph_John" data-name="Joseph John" d="M16.75-17.5h-3.2L8.375-8.975,3.25-17.5H-.225L6.65-6.125V0H9.9V-6.175ZM26-13.35V-6.6c0,2.675-1.475,4.025-3.65,4.025-1.975,0-3.125-1.15-3.125-3.575v-7.2H16.1v7.625c0,4.025,2.325,5.9,5.75,5.9A5.454,5.454,0,0,0,26.15-1.7V0h2.975V-13.35ZM35.85.175C39.6.175,41.9-1.45,41.9-3.95c0-5.225-8.25-2.825-8.25-5.525,0-.875.9-1.5,2.8-1.5a7.308,7.308,0,0,1,3.825,1l1.2-2.375a10.625,10.625,0,0,0-5-1.15c-3.6,0-5.875,1.65-5.875,4.175C30.6-4,38.85-6.4,38.85-3.85c0,.925-.825,1.475-2.8,1.475A8.982,8.982,0,0,1,31.4-3.7L30.2-1.325A10.607,10.607,0,0,0,35.85.175ZM52.9-13.35V-6.6c0,2.675-1.475,4.025-3.65,4.025-1.975,0-3.125-1.15-3.125-3.575v-7.2H43v7.625c0,4.025,2.325,5.9,5.75,5.9A5.454,5.454,0,0,0,53.05-1.7V0h2.975V-13.35ZM64.05-16.2a3.078,3.078,0,0,1,1.725.55L66.65-18a5,5,0,0,0-2.825-.725c-3.1,0-4.775,1.825-4.775,4.625v.85h-2.2v2.5h2.2V0h3.125V-10.75H65.75v-2.5H62.075v-.8C62.075-15.475,62.75-16.2,64.05-16.2ZM74.775.25c3.85,0,5.9-2.025,5.9-6.15V-17.5H71.2v2.725h6.225v9.05c0,2.15-.925,3.225-2.725,3.225a4.244,4.244,0,0,1-3.475-2l-1.85,2.225A6.6,6.6,0,0,0,74.775.25ZM88.525-13.5a9.387,9.387,0,0,0-5.65,1.65L84.1-9.575A6.609,6.609,0,0,1,88.15-10.9c2.225,0,3.325,1.075,3.325,2.9v.2h-3.45c-4.05,0-5.55,1.75-5.55,3.975,0,2.325,1.925,4,4.975,4,2,0,3.45-.65,4.2-1.8V0H94.6V-7.825C94.6-11.675,92.375-13.5,88.525-13.5ZM88.1-2.1c-1.6,0-2.55-.725-2.55-1.85,0-.975.575-1.775,2.7-1.775h3.225v1.55A3.4,3.4,0,0,1,88.1-2.1Zm25.85-11.4a6.231,6.231,0,0,0-5,2.225,5,5,0,0,0-4.5-2.225,5.529,5.529,0,0,0-4.375,1.85v-1.7H97.1V0h3.125V-6.775c0-2.65,1.4-4,3.475-4,1.9,0,3,1.15,3,3.525V0h3.125V-6.775c0-2.65,1.425-4,3.475-4,1.9,0,3,1.15,3,3.525V0h3.125V-7.65C119.425-11.675,117.175-13.5,113.95-13.5Zm13.075,0a9.387,9.387,0,0,0-5.65,1.65L122.6-9.575a6.609,6.609,0,0,1,4.05-1.325c2.225,0,3.325,1.075,3.325,2.9v.2h-3.45c-4.05,0-5.55,1.75-5.55,3.975,0,2.325,1.925,4,4.975,4,2,0,3.45-.65,4.2-1.8V0h2.95V-7.825C133.1-11.675,130.875-13.5,127.025-13.5ZM126.6-2.1c-1.6,0-2.55-.725-2.55-1.85,0-.975.575-1.775,2.7-1.775h3.225v1.55A3.4,3.4,0,0,1,126.6-2.1Zm9,2.1h3.125V-18.55H135.6Z" transform="translate(477 356)"/>
    <path id="John_s_Company" data-name="John&apos;s Company" d="M3.024.1C5.168.1,6.288-1.072,6.288-3.44V-11.2H1.024v1.024h4.1v6.784c0,1.648-.7,2.464-2.08,2.464A2.84,2.84,0,0,1,.624-2.3l-.7.8A3.682,3.682,0,0,0,3.024.1Zm8.56-8.576A5.344,5.344,0,0,0,8.16-7.344l.512.848a4.287,4.287,0,0,1,2.8-.992c1.568,0,2.384.784,2.384,2.224v.512H11.184c-2.416,0-3.248,1.088-3.248,2.384C7.936-.912,9.1.08,11.008.08a3.16,3.16,0,0,0,2.9-1.392V0h1.088V-5.216C14.992-7.392,13.76-8.48,11.584-8.48Zm-.4,7.664C9.84-.816,9.056-1.424,9.056-2.4c0-.864.528-1.5,2.16-1.5h2.64v1.376A2.693,2.693,0,0,1,11.184-.816ZM27.616-8.48A3.665,3.665,0,0,0,24.288-6.7,3.023,3.023,0,0,0,21.3-8.48a3.4,3.4,0,0,0-3.088,1.6V-8.416H17.12V0h1.136V-4.416a2.713,2.713,0,0,1,2.816-3.04c1.536,0,2.432.912,2.432,2.688V0H24.64V-4.416c0-1.92,1.088-3.04,2.816-3.04,1.52,0,2.416.912,2.416,2.688V0h1.136V-4.88C31.008-7.3,29.664-8.48,27.616-8.48Zm8.464,0a5.344,5.344,0,0,0-3.424,1.136l.512.848a4.287,4.287,0,0,1,2.8-.992c1.568,0,2.384.784,2.384,2.224v.512H35.68c-2.416,0-3.248,1.088-3.248,2.384C32.432-.912,33.6.08,35.5.08a3.16,3.16,0,0,0,2.9-1.392V0h1.088V-5.216C39.488-7.392,38.256-8.48,36.08-8.48Zm-.4,7.664c-1.344,0-2.128-.608-2.128-1.584,0-.864.528-1.5,2.16-1.5h2.64v1.376A2.693,2.693,0,0,1,35.68-.816ZM41.616,0h1.136V-11.872H41.616ZM44.56-6.976h.848l.08-4.224H44.48ZM49.488.08c2.192,0,3.472-.944,3.472-2.4,0-3.232-5.456-1.52-5.456-3.792,0-.8.672-1.392,2.192-1.392a4.314,4.314,0,0,1,2.48.72l.5-.912A5.7,5.7,0,0,0,49.7-8.48c-2.144,0-3.328,1.024-3.328,2.4,0,3.328,5.456,1.6,5.456,3.792,0,.832-.656,1.376-2.256,1.376a5.083,5.083,0,0,1-2.992-.944l-.512.9A5.622,5.622,0,0,0,49.488.08ZM62.432.1a5.446,5.446,0,0,0,4.112-1.648L65.792-2.3A4.393,4.393,0,0,1,62.48-.96,4.577,4.577,0,0,1,57.744-5.6a4.577,4.577,0,0,1,4.736-4.64,4.439,4.439,0,0,1,3.312,1.328l.752-.752a5.423,5.423,0,0,0-4.1-1.632,5.623,5.623,0,0,0-5.872,5.7A5.619,5.619,0,0,0,62.432.1ZM70.944.08a4.14,4.14,0,0,0,4.272-4.288A4.127,4.127,0,0,0,70.944-8.48a4.14,4.14,0,0,0-4.288,4.272A4.153,4.153,0,0,0,70.944.08Zm0-1.008a3.081,3.081,0,0,1-3.136-3.28,3.081,3.081,0,0,1,3.136-3.28,3.069,3.069,0,0,1,3.12,3.28A3.069,3.069,0,0,1,70.944-.928ZM87.072-8.48A3.665,3.665,0,0,0,83.744-6.7,3.023,3.023,0,0,0,80.752-8.48a3.4,3.4,0,0,0-3.088,1.6V-8.416H76.576V0h1.136V-4.416a2.713,2.713,0,0,1,2.816-3.04c1.536,0,2.432.912,2.432,2.688V0H84.1V-4.416c0-1.92,1.088-3.04,2.816-3.04,1.52,0,2.416.912,2.416,2.688V0h1.136V-4.88C90.464-7.3,89.12-8.48,87.072-8.48Zm9.856,0A3.666,3.666,0,0,0,93.68-6.752V-8.416H92.592V3.1h1.136V-1.584A3.676,3.676,0,0,0,96.928.08a4.076,4.076,0,0,0,4.192-4.288A4.071,4.071,0,0,0,96.928-8.48Zm-.08,7.552a3.081,3.081,0,0,1-3.136-3.28,3.09,3.09,0,0,1,3.136-3.28,3.1,3.1,0,0,1,3.136,3.28A3.09,3.09,0,0,1,96.848-.928Zm8.528-7.552a5.344,5.344,0,0,0-3.424,1.136l.512.848a4.287,4.287,0,0,1,2.8-.992c1.568,0,2.384.784,2.384,2.224v.512h-2.672c-2.416,0-3.248,1.088-3.248,2.384C101.728-.912,102.9.08,104.8.08a3.16,3.16,0,0,0,2.9-1.392V0h1.088V-5.216C108.784-7.392,107.552-8.48,105.376-8.48Zm-.4,7.664c-1.344,0-2.128-.608-2.128-1.584,0-.864.528-1.5,2.16-1.5h2.64v1.376A2.693,2.693,0,0,1,104.976-.816ZM115.2-8.48A3.537,3.537,0,0,0,112-6.864V-8.416h-1.088V0h1.136V-4.416a2.759,2.759,0,0,1,2.944-3.04c1.6,0,2.528.912,2.528,2.688V0h1.136V-4.88C118.656-7.3,117.248-8.48,115.2-8.48Zm11.376.064-3.168,7.152L120.24-8.416h-1.184l3.76,8.4L122.448.8c-.48,1.056-.992,1.408-1.744,1.408a2.1,2.1,0,0,1-1.536-.64l-.528.848a2.88,2.88,0,0,0,2.048.768c1.2,0,2.1-.528,2.8-2.176L127.7-8.416Z" transform="translate(490 386)" fill="rgba(0,0,0,0.84)"/>
    <g transform="matrix(1, 0, 0, 1, 0, 0)" filter="url(#Rectangle_28)">
      <rect id="Rectangle_28-3" data-name="Rectangle 28" width="772" height="168" rx="25" transform="translate(154 491)" fill="#fff"/>
    </g>
    <path id="Current_order_status" data-name="Current order status" d="M11.286.27a9.592,9.592,0,0,0,7.506-3.159l-2.268-2.16a6.571,6.571,0,0,1-5.049,2.241A6.452,6.452,0,0,1,4.725-9.45a6.452,6.452,0,0,1,6.75-6.642,6.637,6.637,0,0,1,5.049,2.214l2.268-2.133a9.574,9.574,0,0,0-7.479-3.159c-5.805,0-10.125,4.077-10.125,9.72S5.508.27,11.286.27ZM30.4-14.418v7.29c0,2.889-1.593,4.347-3.942,4.347-2.133,0-3.375-1.242-3.375-3.861v-7.776H19.71v8.235c0,4.347,2.511,6.372,6.21,6.372a5.89,5.89,0,0,0,4.644-2.025V0h3.213V-14.418Zm9.4,2.106v-2.106H36.585V0H39.96V-6.993c0-2.943,1.62-4.455,4.185-4.455a4.285,4.285,0,0,1,.783.081V-14.58C42.525-14.58,40.77-13.824,39.8-12.312Zm9.585,0v-2.106H46.17V0h3.375V-6.993c0-2.943,1.62-4.455,4.185-4.455a4.285,4.285,0,0,1,.783.081V-14.58C52.11-14.58,50.355-13.824,49.383-12.312ZM69.174-7.128a7.031,7.031,0,0,0-7.29-7.452,7.17,7.17,0,0,0-7.452,7.371c0,4.293,3.132,7.4,7.965,7.4A7.308,7.308,0,0,0,68.2-2.16L66.393-4.239a5.167,5.167,0,0,1-3.915,1.566c-2.511,0-4.266-1.35-4.671-3.456H69.12C69.147-6.453,69.174-6.858,69.174-7.128Zm-7.29-4.752a3.925,3.925,0,0,1,4.077,3.51H57.78A3.985,3.985,0,0,1,61.884-11.88Zm17.091-2.7a6.269,6.269,0,0,0-4.968,2.025v-1.863H70.794V0h3.375V-7.29c0-2.889,1.62-4.347,4.023-4.347,2.16,0,3.429,1.242,3.429,3.807V0H85V-8.262C85-12.609,82.431-14.58,78.975-14.58ZM95.391-3.186a3.035,3.035,0,0,1-1.89.594c-1.3,0-2-.756-2-2.16V-11.61h3.861v-2.7H91.5V-17.6H88.128v3.294H85.752v2.7h2.376v6.939c0,3.186,1.809,4.86,4.968,4.86a5.3,5.3,0,0,0,3.24-.972ZM109.809.189c4.482,0,7.695-3.078,7.695-7.4s-3.213-7.371-7.695-7.371c-4.428,0-7.668,3.051-7.668,7.371S105.381.189,109.809.189Zm0-2.889a4.193,4.193,0,0,1-4.266-4.509,4.193,4.193,0,0,1,4.266-4.509A4.2,4.2,0,0,1,114.1-7.209,4.2,4.2,0,0,1,109.809-2.7Zm12.528-9.612v-2.106h-3.213V0H122.5V-6.993c0-2.943,1.62-4.455,4.185-4.455a4.285,4.285,0,0,1,.783.081V-14.58C125.064-14.58,123.309-13.824,122.337-12.312Zm16.983-7.722v7.4a5.9,5.9,0,0,0-4.644-1.944,7,7,0,0,0-7.29,7.371,7.016,7.016,0,0,0,7.29,7.4,5.945,5.945,0,0,0,4.779-2.052V0h3.24V-20.034ZM135.081-2.7a4.214,4.214,0,0,1-4.293-4.509,4.214,4.214,0,0,1,4.293-4.509,4.214,4.214,0,0,1,4.293,4.509A4.214,4.214,0,0,1,135.081-2.7Zm23.976-4.428a7.031,7.031,0,0,0-7.29-7.452,7.17,7.17,0,0,0-7.452,7.371c0,4.293,3.132,7.4,7.965,7.4a7.308,7.308,0,0,0,5.805-2.349l-1.809-2.079a5.167,5.167,0,0,1-3.915,1.566c-2.511,0-4.266-1.35-4.671-3.456H159C159.03-6.453,159.057-6.858,159.057-7.128Zm-7.29-4.752a3.925,3.925,0,0,1,4.077,3.51h-8.181A3.985,3.985,0,0,1,151.767-11.88Zm12.123-.432v-2.106h-3.213V0h3.375V-6.993c0-2.943,1.62-4.455,4.185-4.455a4.285,4.285,0,0,1,.783.081V-14.58C166.617-14.58,164.862-13.824,163.89-12.312ZM180.684.189c4.05,0,6.534-1.755,6.534-4.455,0-5.643-8.91-3.051-8.91-5.967,0-.945.972-1.62,3.024-1.62a7.892,7.892,0,0,1,4.131,1.08l1.3-2.565a11.475,11.475,0,0,0-5.4-1.242c-3.888,0-6.345,1.782-6.345,4.509,0,5.751,8.91,3.159,8.91,5.913,0,1-.891,1.593-3.024,1.593A9.7,9.7,0,0,1,175.878-4l-1.3,2.565A11.455,11.455,0,0,0,180.684.189Zm15.552-3.375a3.035,3.035,0,0,1-1.89.594c-1.3,0-2-.756-2-2.16V-11.61h3.861v-2.7h-3.861V-17.6h-3.375v3.294H186.6v2.7h2.376v6.939c0,3.186,1.809,4.86,4.968,4.86a5.3,5.3,0,0,0,3.24-.972ZM203.85-14.58a10.137,10.137,0,0,0-6.1,1.782l1.323,2.457a7.138,7.138,0,0,1,4.374-1.431c2.4,0,3.591,1.161,3.591,3.132v.216H203.31c-4.374,0-5.994,1.89-5.994,4.293,0,2.511,2.079,4.32,5.373,4.32,2.16,0,3.726-.7,4.536-1.944V0h3.186V-8.451C210.411-12.609,208.008-14.58,203.85-14.58Zm-.459,12.312c-1.728,0-2.754-.783-2.754-2,0-1.053.621-1.917,2.916-1.917h3.483v1.674A3.675,3.675,0,0,1,203.391-2.268Zm17.442-.918a3.035,3.035,0,0,1-1.89.594c-1.3,0-2-.756-2-2.16V-11.61h3.861v-2.7h-3.861V-17.6H213.57v3.294h-2.376v2.7h2.376v6.939c0,3.186,1.809,4.86,4.968,4.86a5.3,5.3,0,0,0,3.24-.972Zm12.69-11.232v7.29c0,2.889-1.593,4.347-3.942,4.347-2.133,0-3.375-1.242-3.375-3.861v-7.776h-3.375v8.235c0,4.347,2.511,6.372,6.21,6.372a5.89,5.89,0,0,0,4.644-2.025V0H236.9V-14.418ZM244.161.189c4.05,0,6.534-1.755,6.534-4.455,0-5.643-8.91-3.051-8.91-5.967,0-.945.972-1.62,3.024-1.62a7.892,7.892,0,0,1,4.131,1.08l1.3-2.565a11.475,11.475,0,0,0-5.4-1.242c-3.888,0-6.345,1.782-6.345,4.509,0,5.751,8.91,3.159,8.91,5.913,0,1-.891,1.593-3.024,1.593A9.7,9.7,0,0,1,239.355-4l-1.3,2.565A11.455,11.455,0,0,0,244.161.189Z" transform="translate(204 564)" fill="#585858"/>
    <line id="Line_3" data-name="Line 3" x2="675" transform="translate(207 598)" fill="none" stroke="#8000ff" stroke-width="6"/>
    <path id="_100_" data-name="100%" d="M.224-19.6v3.052H4.368V0h3.64V-19.6ZM18.4.28c4.676,0,8.2-3.64,8.2-10.08s-3.528-10.08-8.2-10.08c-4.648,0-8.176,3.64-8.176,10.08S13.748.28,18.4.28Zm0-3.164c-2.66,0-4.508-2.184-4.508-6.916s1.848-6.916,4.508-6.916c2.688,0,4.536,2.184,4.536,6.916S21.084-2.884,18.4-2.884ZM35.56.28c4.676,0,8.2-3.64,8.2-10.08s-3.528-10.08-8.2-10.08c-4.648,0-8.176,3.64-8.176,10.08S30.912.28,35.56.28Zm0-3.164c-2.66,0-4.508-2.184-4.508-6.916s1.848-6.916,4.508-6.916c2.688,0,4.536,2.184,4.536,6.916S38.248-2.884,35.56-2.884Zm13.356-6.16c2.8,0,4.7-2.128,4.7-5.376s-1.9-5.376-4.7-5.376S44.24-17.64,44.24-14.42,46.116-9.044,48.916-9.044ZM47.292,0h2.744L63.42-19.6H60.676Zm1.624-11c-1.456,0-2.408-1.26-2.408-3.416s.952-3.416,2.408-3.416c1.512,0,2.408,1.232,2.408,3.416S50.428-11,48.916-11ZM61.768.2c2.8,0,4.7-2.156,4.7-5.376s-1.9-5.376-4.7-5.376S57.092-8.4,57.092-5.18,58.968.2,61.768.2Zm0-1.96C60.284-1.764,59.36-3,59.36-5.18S60.284-8.6,61.768-8.6s2.408,1.26,2.408,3.416S63.252-1.764,61.768-1.764Z" transform="translate(813 565)"/>
    <g id="battery-icon" transform="translate(769.2 90.6)" clip-path="url(#clip-path)">
      <path id="_8acbbe12e807aaac9f2e346b96c7b3f9" data-name="8acbbe12e807aaac9f2e346b96c7b3f9" d="M3.624,410.938V400.065H21.746v10.874Zm27.183-9.967a1.813,1.813,0,0,1,1.812,1.812v5.434a1.813,1.813,0,0,1-1.812,1.812v2.265a2.272,2.272,0,0,1-2.265,2.265H2.265a2.181,2.181,0,0,1-1.6-.666A2.182,2.182,0,0,1,0,412.3V398.7a2.181,2.181,0,0,1,.666-1.6,2.181,2.181,0,0,1,1.6-.666H28.544a2.272,2.272,0,0,1,2.265,2.265v2.265Zm0,7.249v-5.434H29V398.7a.437.437,0,0,0-.453-.453H2.265a.437.437,0,0,0-.453.453v13.593a.436.436,0,0,0,.453.453H28.544A.436.436,0,0,0,29,412.3v-4.077h1.812Z" transform="translate(0.896 -394.063)"/>
    </g>
    <g id="wi-fi-icon" transform="translate(726 87)" clip-path="url(#clip-path-2)">
      <g id="b2b244ef3ed1ad711ae902a41013877d" transform="translate(-1.712 -0.911)">
        <path id="Path_1219" data-name="Path 1219" d="M0,0H30.42V29.962H0ZM0,0H30.42V29.962H0Z" fill="none"/>
        <path id="Path_1220" data-name="Path 1220" d="M1,10.13l2.535,2.5a16.308,16.308,0,0,1,22.814,0l2.535-2.5A19.941,19.941,0,0,0,1,10.13Zm10.14,9.987,3.806,3.745,3.8-3.745a5.428,5.428,0,0,0-7.6,0Zm-5.07-4.99L8.6,17.619a9.064,9.064,0,0,1,12.673,0l2.536-2.493A12.7,12.7,0,0,0,6.069,15.127Z" transform="translate(0.267 1.105)"/>
      </g>
    </g>
    <g id="profile-icon" transform="translate(483.344 170.787)" clip-path="url(#clip-path-3)">
      <path id="_264d89beaa432b28f34b81c6af95aa84" data-name="264d89beaa432b28f34b81c6af95aa84" d="M65.495,128.989A63.495,63.495,0,1,0,2,65.494a63.495,63.495,0,0,0,63.495,63.495ZM84.544,52.8A19.049,19.049,0,1,1,65.5,33.747,19.049,19.049,0,0,1,84.544,52.8ZM27.4,97.238a47.621,47.621,0,0,1,76.194,0,47.621,47.621,0,0,1-76.194,0Z" transform="translate(5.163 4.993)" fill-rule="evenodd" fill="url(#linear-gradient)"/>
    </g>
    <g id="f6a3da0d926e7551c375f56dbf678543" transform="translate(284 981.023)">
      <path id="Path_1172" data-name="Path 1172" d="M0,0H36V36H0Z" fill="none"/>
      <path id="Path_1173" data-name="Path 1173" d="M25.73,20.174l-3.559-.406a2.788,2.788,0,0,0-2.3.8l-2.578,2.578a21.08,21.08,0,0,1-9.233-9.233l2.592-2.592a2.789,2.789,0,0,0,.8-2.3L11.046,5.49A2.8,2.8,0,0,0,8.258,3.01H5.834a2.781,2.781,0,0,0-2.8,2.9A23.807,23.807,0,0,0,25.3,28.174a2.781,2.781,0,0,0,2.9-2.8V22.948A2.777,2.777,0,0,0,25.73,20.174Z" transform="translate(2.404 2.391)"/>
    </g>
    <g id="_9c5aedaf7e19e4544f4cb2184367b532" data-name="9c5aedaf7e19e4544f4cb2184367b532" transform="translate(762.027 981.023)">
      <path id="Path_1170" data-name="Path 1170" d="M0,0H36V36H0Z" fill="none"/>
      <path id="Path_1171" data-name="Path 1171" d="M27.338,12.263H25.957V9.33A7.131,7.131,0,0,0,19.05,2a7.131,7.131,0,0,0-6.907,7.33v2.932H10.763A2.85,2.85,0,0,0,8,15.195V29.856a2.85,2.85,0,0,0,2.763,2.932H27.338A2.85,2.85,0,0,0,30.1,29.856V15.195A2.85,2.85,0,0,0,27.338,12.263ZM19.05,25.457a2.937,2.937,0,1,1,2.763-2.932A2.85,2.85,0,0,1,19.05,25.457Zm4.282-13.195H14.768V9.33A4.423,4.423,0,0,1,19.05,4.786,4.423,4.423,0,0,1,23.332,9.33Z" transform="translate(-1.05 -0.263)"/>
    </g>
    <rect id="Rectangle_148" data-name="Rectangle 148" width="461.527" height="82" rx="20" transform="translate(309.236 822)" fill="#f0f3f9"/>
    <g transform="matrix(1, 0, 0, 1, 0, 0)" filter="url(#Rectangle_28-2)">
      <rect id="Rectangle_28-4" data-name="Rectangle 28" width="772" height="168" rx="25" transform="translate(154 690)" fill="#fff"/>
    </g>
    <path id="Current_order_status-2" data-name="Current order status" d="M18.09-18.9H14.634L9.045-9.693,3.51-18.9H-.243L7.182-6.615V0h3.51V-6.669ZM23.3.189C27.783.189,31-2.889,31-7.209S27.783-14.58,23.3-14.58c-4.428,0-7.668,3.051-7.668,7.371S18.873.189,23.3.189Zm0-2.889a4.193,4.193,0,0,1-4.266-4.509A4.193,4.193,0,0,1,23.3-11.718a4.2,4.2,0,0,1,4.293,4.509A4.2,4.2,0,0,1,23.3-2.7ZM43.2-14.418v7.29c0,2.889-1.593,4.347-3.942,4.347-2.133,0-3.375-1.242-3.375-3.861v-7.776H32.508v8.235c0,4.347,2.511,6.372,6.21,6.372a5.89,5.89,0,0,0,4.644-2.025V0h3.213V-14.418Zm9.4,2.106v-2.106H49.383V0h3.375V-6.993c0-2.943,1.62-4.455,4.185-4.455a4.285,4.285,0,0,1,.783.081V-14.58C55.323-14.58,53.568-13.824,52.6-12.312ZM71.55.189a6.555,6.555,0,0,0,6.156-3.375L75.114-4.7a4.08,4.08,0,0,1-3.591,2,4.217,4.217,0,0,1-4.374-4.509,4.232,4.232,0,0,1,4.374-4.509,4.08,4.08,0,0,1,3.591,2l2.592-1.512C76.6-13.419,74.358-14.58,71.55-14.58c-4.563,0-7.8,3.051-7.8,7.371S66.987.189,71.55.189Zm13.716,0c4.482,0,7.695-3.078,7.695-7.4s-3.213-7.371-7.695-7.371c-4.428,0-7.668,3.051-7.668,7.371S80.838.189,85.266.189Zm0-2.889A4.193,4.193,0,0,1,81-7.209a4.193,4.193,0,0,1,4.266-4.509,4.2,4.2,0,0,1,4.293,4.509A4.2,4.2,0,0,1,85.266-2.7Zm27.513-11.88a6.73,6.73,0,0,0-5.4,2.4,5.4,5.4,0,0,0-4.86-2.4,5.972,5.972,0,0,0-4.725,2v-1.836H94.581V0h3.375V-7.317c0-2.862,1.512-4.32,3.753-4.32,2.052,0,3.24,1.242,3.24,3.807V0h3.375V-7.317c0-2.862,1.539-4.32,3.753-4.32,2.052,0,3.24,1.242,3.24,3.807V0h3.375V-8.262C118.692-12.609,116.262-14.58,112.779-14.58Zm16.6,0a5.945,5.945,0,0,0-4.779,2.052v-1.89h-3.213V5.238h3.375V-1.755A5.924,5.924,0,0,0,129.384.189a7.023,7.023,0,0,0,7.317-7.4A7.016,7.016,0,0,0,129.384-14.58ZM129.006-2.7a4.214,4.214,0,0,1-4.293-4.509,4.214,4.214,0,0,1,4.293-4.509,4.193,4.193,0,0,1,4.266,4.509A4.193,4.193,0,0,1,129.006-2.7Zm14.607-11.88a10.137,10.137,0,0,0-6.1,1.782l1.323,2.457a7.138,7.138,0,0,1,4.374-1.431c2.4,0,3.591,1.161,3.591,3.132v.216h-3.726c-4.374,0-5.994,1.89-5.994,4.293,0,2.511,2.079,4.32,5.373,4.32,2.16,0,3.726-.7,4.536-1.944V0h3.186V-8.451C150.174-12.609,147.771-14.58,143.613-14.58Zm-.459,12.312c-1.728,0-2.754-.783-2.754-2,0-1.053.621-1.917,2.916-1.917H146.8v1.674A3.675,3.675,0,0,1,143.154-2.268Zm17.9-12.312a6.269,6.269,0,0,0-4.968,2.025v-1.863h-3.213V0h3.375V-7.29c0-2.889,1.62-4.347,4.023-4.347,2.16,0,3.429,1.242,3.429,3.807V0h3.375V-8.262C167.076-12.609,164.511-14.58,161.055-14.58Zm18.684.162L175.176-3.753,170.64-14.418h-3.51L173.421.054l-.243.567c-.648,1.431-1.35,2-2.538,2a3.657,3.657,0,0,1-2.484-1L166.806,4.1a5.967,5.967,0,0,0,3.861,1.323c2.4,0,4.239-1,5.562-4.266l6.75-15.579Zm17.739-.162a6.427,6.427,0,0,0-4.806,1.836v-7.29H189.3V0h3.375V-7.29c0-2.889,1.62-4.347,4.023-4.347,2.16,0,3.429,1.242,3.429,3.807V0H203.5V-8.262C203.5-12.609,200.934-14.58,197.478-14.58Zm14.2,0a10.137,10.137,0,0,0-6.1,1.782l1.323,2.457a7.138,7.138,0,0,1,4.374-1.431c2.4,0,3.591,1.161,3.591,3.132v.216H211.14c-4.374,0-5.994,1.89-5.994,4.293,0,2.511,2.079,4.32,5.373,4.32,2.16,0,3.726-.7,4.536-1.944V0h3.186V-8.451C218.241-12.609,215.838-14.58,211.68-14.58Zm-.459,12.312c-1.728,0-2.754-.783-2.754-2,0-1.053.621-1.917,2.916-1.917h3.483v1.674A3.675,3.675,0,0,1,211.221-2.268ZM225.4.189c4.05,0,6.534-1.755,6.534-4.455,0-5.643-8.91-3.051-8.91-5.967,0-.945.972-1.62,3.024-1.62a7.892,7.892,0,0,1,4.131,1.08l1.3-2.565a11.475,11.475,0,0,0-5.4-1.242c-3.888,0-6.345,1.782-6.345,4.509,0,5.751,8.91,3.159,8.91,5.913,0,1-.891,1.593-3.024,1.593A9.7,9.7,0,0,1,220.59-4l-1.3,2.565A11.455,11.455,0,0,0,225.4.189ZM247.05-14.58a5.993,5.993,0,0,0-4.617,1.917v-7.371h-3.375V0h3.213V-1.863A5.945,5.945,0,0,0,247.05.189a7.023,7.023,0,0,0,7.317-7.4A7,7,0,0,0,247.05-14.58ZM246.672-2.7a4.214,4.214,0,0,1-4.293-4.509,4.214,4.214,0,0,1,4.293-4.509,4.193,4.193,0,0,1,4.266,4.509A4.193,4.193,0,0,1,246.672-2.7Zm22.842-4.428a7.031,7.031,0,0,0-7.29-7.452,7.17,7.17,0,0,0-7.452,7.371c0,4.293,3.132,7.4,7.965,7.4a7.308,7.308,0,0,0,5.8-2.349l-1.809-2.079a5.167,5.167,0,0,1-3.915,1.566c-2.511,0-4.266-1.35-4.671-3.456H269.46C269.487-6.453,269.514-6.858,269.514-7.128Zm-7.29-4.752A3.925,3.925,0,0,1,266.3-8.37H258.12A3.985,3.985,0,0,1,262.224-11.88Zm22.464,4.752a7.031,7.031,0,0,0-7.29-7.452,7.17,7.17,0,0,0-7.452,7.371c0,4.293,3.132,7.4,7.965,7.4a7.308,7.308,0,0,0,5.8-2.349l-1.809-2.079a5.167,5.167,0,0,1-3.915,1.566c-2.511,0-4.266-1.35-4.671-3.456h11.313C284.661-6.453,284.688-6.858,284.688-7.128ZM277.4-11.88a3.925,3.925,0,0,1,4.077,3.51h-8.181A3.985,3.985,0,0,1,277.4-11.88Zm17.091-2.7a6.269,6.269,0,0,0-4.968,2.025v-1.863h-3.213V0h3.375V-7.29c0-2.889,1.62-4.347,4.023-4.347,2.16,0,3.429,1.242,3.429,3.807V0h3.375V-8.262C300.51-12.609,297.945-14.58,294.489-14.58ZM314.874-17.5a3.324,3.324,0,0,1,1.863.594l.945-2.538a5.4,5.4,0,0,0-3.051-.783c-3.348,0-5.157,1.971-5.157,4.995v.918H307.1v2.7h2.376V0h3.375V-11.61h3.861v-2.7h-3.969v-.864C312.741-16.713,313.47-17.5,314.874-17.5ZM323.622.189c4.482,0,7.7-3.078,7.7-7.4s-3.213-7.371-7.7-7.371c-4.428,0-7.668,3.051-7.668,7.371S319.194.189,323.622.189Zm0-2.889a4.193,4.193,0,0,1-4.266-4.509,4.193,4.193,0,0,1,4.266-4.509,4.2,4.2,0,0,1,4.293,4.509A4.2,4.2,0,0,1,323.622-2.7Zm12.528-9.612v-2.106h-3.213V0h3.375V-6.993c0-2.943,1.62-4.455,4.185-4.455a4.285,4.285,0,0,1,.783.081V-14.58C338.877-14.58,337.122-13.824,336.15-12.312Zm24.57-2.268a6.73,6.73,0,0,0-5.4,2.4,5.4,5.4,0,0,0-4.86-2.4,5.972,5.972,0,0,0-4.725,2v-1.836h-3.213V0H345.9V-7.317c0-2.862,1.512-4.32,3.753-4.32,2.052,0,3.24,1.242,3.24,3.807V0h3.375V-7.317c0-2.862,1.539-4.32,3.753-4.32,2.052,0,3.24,1.242,3.24,3.807V0h3.375V-8.262C366.633-12.609,364.2-14.58,360.72-14.58Zm22.3,7.452a7.031,7.031,0,0,0-7.29-7.452,7.17,7.17,0,0,0-7.452,7.371c0,4.293,3.132,7.4,7.965,7.4a7.308,7.308,0,0,0,5.8-2.349l-1.809-2.079a5.167,5.167,0,0,1-3.915,1.566c-2.511,0-4.266-1.35-4.671-3.456h11.313C383-6.453,383.022-6.858,383.022-7.128Zm-7.29-4.752a3.925,3.925,0,0,1,4.077,3.51h-8.181A3.985,3.985,0,0,1,375.732-11.88Zm19.656-8.154v7.4a5.9,5.9,0,0,0-4.644-1.944,7,7,0,0,0-7.29,7.371,7.016,7.016,0,0,0,7.29,7.4,5.945,5.945,0,0,0,4.779-2.052V0h3.24V-20.034ZM391.149-2.7a4.214,4.214,0,0,1-4.293-4.509,4.214,4.214,0,0,1,4.293-4.509,4.214,4.214,0,0,1,4.293,4.509A4.214,4.214,0,0,1,391.149-2.7Z" transform="translate(328 799)" fill="#585858"/>
    <path id="Current_order_status-3" data-name="Current order status" d="M16.562,0H18.59L10.27-18.2h-1.9L.052,0h2L4.238-4.862h10.14ZM4.94-6.422,9.308-16.2l4.368,9.776ZM19.656,0H21.5V-19.292H19.656ZM37.024-6.838c0-4.108-2.782-6.942-6.63-6.942a6.587,6.587,0,0,0-6.682,6.942c0,4.056,2.912,6.968,7.176,6.968a6.732,6.732,0,0,0,5.278-2.236l-1.04-1.2A5.391,5.391,0,0,1,30.94-1.508a5.062,5.062,0,0,1-5.382-4.758H37C37-6.474,37.024-6.682,37.024-6.838Zm-6.63-5.356a4.757,4.757,0,0,1,4.862,4.55h-9.7A4.75,4.75,0,0,1,30.394-12.194ZM41-11v-2.678H39.234V0H41.08V-6.968c0-3.224,1.742-5.044,4.6-5.044.13,0,.286.026.442.026V-13.78C43.6-13.78,41.86-12.818,41-11Zm14.04,8.84a3.055,3.055,0,0,1-2.028.7,2.19,2.19,0,0,1-2.366-2.5v-8.164h4.16v-1.56h-4.16v-2.99H48.8v2.99H46.358v1.56H48.8v8.268c0,2.522,1.43,3.978,4,3.978a4.4,4.4,0,0,0,2.886-.962Z" transform="translate(328 764)" fill="#585858"/>
    <g id="_3265bd1d0d0807dbc0ef3179a58b1e60" data-name="3265bd1d0d0807dbc0ef3179a58b1e60" transform="translate(786.027 -841.333)">
      <path id="Path_1221" data-name="Path 1221" d="M84,0A84,84,0,1,1,0,84,84,84,0,0,1,84,0Z" transform="translate(-0.027 1028.333)" fill="url(#linear-gradient)"/>
      <path id="Path_1174" data-name="Path 1174" d="M68.54,132.734q2.41-.467,4.79-1.075,4.034-1.128,7.94-2.654t7.646-3.408a83.8,83.8,0,0,0,7.269-4.169q3.524-2.265,6.808-4.874a83.8,83.8,0,0,0,6.3-5.538q3-2.918,5.705-6.124t5.07-6.669q2.366-3.453,4.378-7.13t3.645-7.542q1.634-3.861,2.877-7.87,1.062-3.506,1.816-7.095L83,18.806a45.39,45.39,0,1,0-64.181,64.2L68.54,132.727Z" transform="translate(32.888 1061.257)" fill="blue"/>
      <path id="Path_1175" data-name="Path 1175" d="M47.424,2A45.455,45.455,0,1,1,15.316,15.31,45.259,45.259,0,0,1,47.424,2Zm20.67,31.438a3.512,3.512,0,0,0-1.816.719L40.762,53.29,28.94,41.475c-2.563-2.668-7.612,2.374-4.937,4.937L37.969,60.378a3.61,3.61,0,0,0,4.56.328L70.461,39.757c2.346-1.711.9-6.271-2-6.313a3.492,3.492,0,0,0-.356,0Z" transform="translate(36.379 1064.76)" fill="#fff"/>
    </g>
    <path id="Path_1301" data-name="Path 1301" d="M-83.14-14V-2.64L-92.16-14h-1.22V0h1.48V-11.36L-82.9,0h1.22V-14ZM-73.12.1a5.175,5.175,0,0,0,5.34-5.36,5.158,5.158,0,0,0-5.34-5.34,5.174,5.174,0,0,0-5.36,5.34A5.191,5.191,0,0,0-73.12.1Zm0-1.26a3.852,3.852,0,0,1-3.92-4.1,3.852,3.852,0,0,1,3.92-4.1,3.836,3.836,0,0,1,3.9,4.1A3.836,3.836,0,0,1-73.12-1.16Zm13.28-.5a2.35,2.35,0,0,1-1.56.54,1.685,1.685,0,0,1-1.82-1.92V-9.32h3.2v-1.2h-3.2v-2.3h-1.42v2.3h-1.88v1.2h1.88v6.36A2.787,2.787,0,0,0-61.56.1a3.382,3.382,0,0,0,2.22-.74Zm3.8-11.16A1.021,1.021,0,0,0-55-13.86a1.009,1.009,0,0,0-1.04-.98,1.025,1.025,0,0,0-1.04,1A1.029,1.029,0,0,0-56.04-12.82ZM-56.76,0h1.42V-10.52h-1.42Zm5.62-11.82v1.3h-1.88v1.2h1.88V0h1.42V-9.32h3.2v-1.2h-3.24v-1.24c0-1.3.64-1.98,1.86-1.98a2.406,2.406,0,0,1,1.56.52l.48-1.06a3.334,3.334,0,0,0-2.1-.66A2.9,2.9,0,0,0-51.14-11.82Zm8.86-3.02a1.025,1.025,0,0,0-1.04,1,1.029,1.029,0,0,0,1.04,1.02,1.021,1.021,0,0,0,1.04-1.04A1.009,1.009,0,0,0-42.28-14.84ZM-43,0h1.42V-10.52H-43Zm9.74.1a4.638,4.638,0,0,0,4.12-2.08L-30.2-2.7a3.558,3.558,0,0,1-3.06,1.54,3.854,3.854,0,0,1-3.98-4.1,3.865,3.865,0,0,1,3.98-4.1A3.576,3.576,0,0,1-30.2-7.8l1.06-.72a4.6,4.6,0,0,0-4.12-2.08,5.178,5.178,0,0,0-5.42,5.34A5.194,5.194,0,0,0-33.26.1Zm10.58-10.7a6.68,6.68,0,0,0-4.28,1.42l.64,1.06a5.359,5.359,0,0,1,3.5-1.24c1.96,0,2.98.98,2.98,2.78v.64h-3.34c-3.02,0-4.06,1.36-4.06,2.98C-27.24-1.14-25.78.1-23.4.1a3.95,3.95,0,0,0,3.62-1.74V0h1.36V-6.52C-18.42-9.24-19.96-10.6-22.68-10.6Zm-.5,9.58c-1.68,0-2.66-.76-2.66-1.98,0-1.08.66-1.88,2.7-1.88h3.3v1.72A3.366,3.366,0,0,1-23.18-1.02Zm13.66-.64a2.35,2.35,0,0,1-1.56.54A1.685,1.685,0,0,1-12.9-3.04V-9.32h3.2v-1.2h-3.2v-2.3h-1.42v2.3H-16.2v1.2h1.88v6.36A2.787,2.787,0,0,0-11.24.1,3.382,3.382,0,0,0-9.02-.64Zm3.8-11.16a1.021,1.021,0,0,0,1.04-1.04,1.009,1.009,0,0,0-1.04-.98,1.025,1.025,0,0,0-1.04,1A1.029,1.029,0,0,0-5.72-12.82ZM-6.44,0h1.42V-10.52H-6.44ZM3.24.1A5.175,5.175,0,0,0,8.58-5.26,5.158,5.158,0,0,0,3.24-10.6,5.174,5.174,0,0,0-2.12-5.26,5.191,5.191,0,0,0,3.24.1Zm0-1.26A3.852,3.852,0,0,1-.68-5.26a3.852,3.852,0,0,1,3.92-4.1,3.836,3.836,0,0,1,3.9,4.1A3.836,3.836,0,0,1,3.24-1.16Zm13.6-9.44a4.421,4.421,0,0,0-4,2.02v-1.94H11.48V0H12.9V-5.52a3.449,3.449,0,0,1,3.68-3.8c2,0,3.16,1.14,3.16,3.36V0h1.42V-6.1C21.16-9.12,19.4-10.6,16.84-10.6ZM36.64.12a6.808,6.808,0,0,0,5.14-2.06l-.94-.94A5.492,5.492,0,0,1,36.7-1.2,5.721,5.721,0,0,1,30.78-7a5.721,5.721,0,0,1,5.92-5.8,5.548,5.548,0,0,1,4.14,1.66l.94-.94a6.779,6.779,0,0,0-5.12-2.04A7.029,7.029,0,0,0,29.32-7,7.024,7.024,0,0,0,36.64.12ZM53.36-5.26a5.013,5.013,0,0,0-5.1-5.34,5.067,5.067,0,0,0-5.14,5.34A5.21,5.21,0,0,0,48.64.1,5.178,5.178,0,0,0,52.7-1.62l-.8-.92a4.147,4.147,0,0,1-3.22,1.38,3.894,3.894,0,0,1-4.14-3.66h8.8C53.34-4.98,53.36-5.14,53.36-5.26Zm-5.1-4.12A3.659,3.659,0,0,1,52-5.88H44.54A3.654,3.654,0,0,1,48.26-9.38ZM61.62-10.6a4.421,4.421,0,0,0-4,2.02v-1.94H56.26V0h1.42V-5.52a3.449,3.449,0,0,1,3.68-3.8c2,0,3.16,1.14,3.16,3.36V0h1.42V-6.1C65.94-9.12,64.18-10.6,61.62-10.6ZM74.84-1.66a2.35,2.35,0,0,1-1.56.54,1.685,1.685,0,0,1-1.82-1.92V-9.32h3.2v-1.2h-3.2v-2.3H70.04v2.3H68.16v1.2h1.88v6.36A2.787,2.787,0,0,0,73.12.1a3.382,3.382,0,0,0,2.22-.74Zm11.88-3.6a5.013,5.013,0,0,0-5.1-5.34,5.067,5.067,0,0,0-5.14,5.34A5.21,5.21,0,0,0,82,.1a5.178,5.178,0,0,0,4.06-1.72l-.8-.92a4.147,4.147,0,0,1-3.22,1.38A3.894,3.894,0,0,1,77.9-4.82h8.8C86.7-4.98,86.72-5.14,86.72-5.26Zm-5.1-4.12a3.659,3.659,0,0,1,3.74,3.5H77.9A3.654,3.654,0,0,1,81.62-9.38Zm9.36.92v-2.06H89.62V0h1.42V-5.36c0-2.48,1.34-3.88,3.54-3.88.1,0,.22.02.34.02V-10.6A3.967,3.967,0,0,0,90.98-8.46Z" transform="translate(365 472)" fill="#757575"/>
    <g id="Group_531" data-name="Group 531" transform="translate(-22 154.17)">
      <text id="B" transform="translate(253 647.83)" font-size="87" font-family="SpaceGrotesk-Bold, Space Grotesk" font-weight="700"><tspan x="-28.884" y="0">B</tspan></text>
      <g id="boosty" transform="translate(222.439 653.714)">
        <g id="Group_19" data-name="Group 19" transform="translate(0 1.252)" clip-path="url(#clip-path-4)">
          <path id="Path_7" data-name="Path 7" d="M91.246,72.8c-20.006,0-29.4-13.032-29.782-13.59a1.9,1.9,0,0,1,.474-2.66,1.931,1.931,0,0,1,2.675.474c.343.484,8.7,11.952,26.633,11.952,13.223,0,24.261-9.634,24.368-9.732a1.929,1.929,0,0,1,2.714.157,1.9,1.9,0,0,1-.157,2.7C117.675,62.535,105.918,72.8,91.246,72.8Zm0,0" transform="translate(-60.971 -55.948)" fill="url(#linear-gradient)"/>
        </g>
        <g id="Group_20" data-name="Group 20" transform="translate(46.321)" clip-path="url(#clip-path-5)">
          <path id="Path_9" data-name="Path 9" d="M108.615,69.363a1.927,1.927,0,0,1-1.868-2.372l1.8-7.242-7.164,1.78a1.911,1.911,0,1,1-.934-3.707l10.261-2.552a1.94,1.94,0,0,1,1.825.5,1.908,1.908,0,0,1,.508,1.814L110.48,67.909A1.92,1.92,0,0,1,108.615,69.363Zm0,0" transform="translate(-97.754 -54.947)" fill="url(#linear-gradient)"/>
        </g>
      </g>
    </g>
  </g>
</svg>
