<svg xmlns="http://www.w3.org/2000/svg" xmlns:xlink="http://www.w3.org/1999/xlink" width="229" height="76" viewBox="0 0 229 76">
  <defs>
    <clipPath id="clip-path">
      <rect id="Rectangle_182" data-name="Rectangle 182" width="229" height="76" transform="translate(-0.497 0.168)" fill="#fff"/>
    </clipPath>
    <clipPath id="clip-path-2">
      <path id="Path_8" data-name="Path 8" d="M61,56h54.029V71.474H61Zm0,0" transform="translate(-61 -56)" fill="#fff"/>
    </clipPath>
    <clipPath id="clip-path-3">
      <path id="Path_10" data-name="Path 10" d="M98,55h14.163V68.795H98Zm0,0" transform="translate(-98 -55)" fill="#fff"/>
    </clipPath>
    <clipPath id="clip-boosty-white-logo">
      <rect width="229" height="76"/>
    </clipPath>
  </defs>
  <g id="boosty-white-logo" clip-path="url(#clip-boosty-white-logo)">
    <g id="boosty-logo" transform="translate(0.497 -0.168)" clip-path="url(#clip-path)">
      <path id="Path_241" data-name="Path 241" d="M3.588-13.014v-6.892H9.054v-27.8H3.588V-54.6H24.976A15.941,15.941,0,0,1,31.6-53.324,10.223,10.223,0,0,1,36-49.7a9.84,9.84,0,0,1,1.569,5.614v.594A9.083,9.083,0,0,1,36.5-38.828a8.481,8.481,0,0,1-2.525,2.792,10.981,10.981,0,0,1-2.763,1.4v1.066a10.686,10.686,0,0,1,2.85,1.34,8.279,8.279,0,0,1,2.644,2.818,9.308,9.308,0,0,1,1.1,4.812v.594a10.6,10.6,0,0,1-1.6,5.915,10.323,10.323,0,0,1-4.425,3.773,15.474,15.474,0,0,1-6.566,1.307ZM16.9-20.143h7.367a6.453,6.453,0,0,0,4.129-1.249,4.282,4.282,0,0,0,1.574-3.565v-.594a4.318,4.318,0,0,0-1.545-3.565,6.427,6.427,0,0,0-4.159-1.248H16.9Zm0-17.348h7.248a6.258,6.258,0,0,0,4.01-1.248,4.153,4.153,0,0,0,1.574-3.447v-.594a4.167,4.167,0,0,0-1.545-3.476,6.335,6.335,0,0,0-4.037-1.219H16.9ZM54.919-12.182a17.184,17.184,0,0,1-7.9-1.782,13.366,13.366,0,0,1-5.525-5.169,15.607,15.607,0,0,1-2.02-8.139v-.951a15.607,15.607,0,0,1,2.02-8.139,13.366,13.366,0,0,1,5.525-5.169,17.184,17.184,0,0,1,7.9-1.782,17.184,17.184,0,0,1,7.9,1.782,13.366,13.366,0,0,1,5.525,5.169,15.607,15.607,0,0,1,2.02,8.139v.951a15.607,15.607,0,0,1-2.02,8.139,13.366,13.366,0,0,1-5.525,5.169,17.184,17.184,0,0,1-7.9,1.782Zm0-6.654a7.785,7.785,0,0,0,5.7-2.228,8.576,8.576,0,0,0,2.258-6.387v-.594a8.643,8.643,0,0,0-2.228-6.387,7.76,7.76,0,0,0-5.733-2.228,7.785,7.785,0,0,0-5.7,2.228,8.576,8.576,0,0,0-2.258,6.387v.594a8.576,8.576,0,0,0,2.258,6.387A7.785,7.785,0,0,0,54.919-18.836Zm32.795,6.654a17.184,17.184,0,0,1-7.9-1.782,13.366,13.366,0,0,1-5.525-5.169,15.607,15.607,0,0,1-2.02-8.139v-.951a15.607,15.607,0,0,1,2.02-8.139,13.366,13.366,0,0,1,5.525-5.169,17.184,17.184,0,0,1,7.9-1.782,17.184,17.184,0,0,1,7.9,1.782,13.366,13.366,0,0,1,5.525,5.169,15.607,15.607,0,0,1,2.02,8.139v.951a15.607,15.607,0,0,1-2.02,8.139,13.366,13.366,0,0,1-5.525,5.169,17.184,17.184,0,0,1-7.9,1.782Zm0-6.654a6.261,6.261,0,0,0,5.7-2.228c1.99-2.154,2.258-3.614,2.258-6.387v-.594a8.643,8.643,0,0,0-2.228-6.387,7.76,7.76,0,0,0-5.733-2.228,7.785,7.785,0,0,0-5.7,2.228,8.576,8.576,0,0,0-2.258,6.387v.594a8.576,8.576,0,0,0,2.258,6.387,7.785,7.785,0,0,0,5.7,2.228Zm31.012,6.654a16.5,16.5,0,0,1-9.445-2.5,10.259,10.259,0,0,1-4.456-7.129l6.892-1.782a7.322,7.322,0,0,0,1.4,3.268,5.391,5.391,0,0,0,2.437,1.693,9.638,9.638,0,0,0,3.178.5,6.528,6.528,0,0,0,3.862-.921,2.753,2.753,0,0,0,1.248-2.285,2.352,2.352,0,0,0-1.188-2.109,11.354,11.354,0,0,0-3.8-1.219l-1.664-.3a29.973,29.973,0,0,1-5.644-1.634,10.29,10.29,0,0,1-4.1-2.881,7.145,7.145,0,0,1-1.545-4.753,7.845,7.845,0,0,1,3.208-6.743,13.959,13.959,0,0,1,8.436-2.347,14.374,14.374,0,0,1,8.2,2.2,10.13,10.13,0,0,1,4.278,5.763l-6.951,2.139a4.791,4.791,0,0,0-1.931-3.208,6.437,6.437,0,0,0-3.594-.951,5.956,5.956,0,0,0-3.268.743,2.328,2.328,0,0,0-1.129,2.05,2.268,2.268,0,0,0,1.188,2.109,9.992,9.992,0,0,0,3.208,1.04l1.664.3a36.564,36.564,0,0,1,6.03,1.574,10.076,10.076,0,0,1,4.278,2.792,7.215,7.215,0,0,1,1.574,4.9,8.43,8.43,0,0,1-3.357,7.16Q124.37-12.182,118.726-12.182Zm26.022-.832a6.388,6.388,0,0,1-4.722-1.812,6.544,6.544,0,0,1-1.812-4.842V-36.3h-7.367v-6.179h7.367v-9.149H145.7v9.149h8.08V-36.3H145.7v15.328q0,1.782,1.664,1.782h5.7v6.179ZM160.2-1.132V-7.667h16.041q1.664,0,1.664-1.782v-7.426h-1.066a7.321,7.321,0,0,1-1.485,2.02,7.632,7.632,0,0,1-2.737,1.664,12.551,12.551,0,0,1-4.4.654,11.36,11.36,0,0,1-6.03-1.574,10.688,10.688,0,0,1-4.01-4.367,13.915,13.915,0,0,1-1.426-6.416V-42.481h7.484V-25.49a6.854,6.854,0,0,0,1.634,4.991,6.246,6.246,0,0,0,4.664,1.664,6.566,6.566,0,0,0,5.347-2.285,9.7,9.7,0,0,0,1.9-6.387V-42.481h7.486v34.7a6.605,6.605,0,0,1-1.782,4.842,6.365,6.365,0,0,1-4.753,1.812Z" transform="translate(18.949 61.761)" fill="#fff"/>
      <g id="boosty" transform="translate(64.855 53.843)">
        <g id="Group_19" data-name="Group 19" transform="translate(0 1.149)" clip-path="url(#clip-path-2)">
          <path id="Path_7" data-name="Path 7" d="M88.783,71.443c-18.37,0-26.993-11.966-27.347-12.479a1.745,1.745,0,0,1,.436-2.443,1.773,1.773,0,0,1,2.456.436c.315.445,7.993,10.975,24.455,10.975,12.142,0,22.278-8.846,22.375-8.936a1.771,1.771,0,0,1,2.492.144,1.747,1.747,0,0,1-.144,2.479C113.05,62.018,102.254,71.443,88.783,71.443Zm0,0" transform="translate(-60.983 -55.969)" fill="#fff"/>
        </g>
        <g id="Group_20" data-name="Group 20" transform="translate(42.534)" clip-path="url(#clip-path-3)">
          <path id="Path_9" data-name="Path 9" d="M107.829,68.206a1.769,1.769,0,0,1-1.715-2.178l1.652-6.65-6.579,1.635a1.755,1.755,0,0,1-.858-3.4l9.422-2.344a1.782,1.782,0,0,1,1.676.457,1.752,1.752,0,0,1,.467,1.666l-2.353,9.484a1.763,1.763,0,0,1-1.712,1.334Zm0,0" transform="translate(-97.856 -54.968)" fill="#fff"/>
        </g>
      </g>
    </g>
  </g>
</svg>
