<svg xmlns="http://www.w3.org/2000/svg" xmlns:xlink="http://www.w3.org/1999/xlink" viewBox="0,0,256,256" width="64px" height="64px"><defs><linearGradient x1="32" y1="6.75" x2="32" y2="57.51" gradientUnits="userSpaceOnUse" id="color-1"><stop offset="0" stop-color="#0000ff"></stop><stop offset="1" stop-color="#952ffa"></stop></linearGradient><linearGradient x1="32" y1="6.75" x2="32" y2="57.51" gradientUnits="userSpaceOnUse" id="color-2"><stop offset="0" stop-color="#0000ff"></stop><stop offset="1" stop-color="#952ffa"></stop></linearGradient><linearGradient x1="22" y1="37.25" x2="22" y2="47.115" gradientUnits="userSpaceOnUse" id="color-3"><stop offset="0" stop-color="#0000ff"></stop><stop offset="1" stop-color="#952ffa"></stop></linearGradient></defs><g fill="none" fill-rule="nonzero" stroke="none" stroke-width="1" stroke-linecap="butt" stroke-linejoin="miter" stroke-miterlimit="10" stroke-dasharray="" stroke-dashoffset="0" font-family="none" font-weight="none" font-size="none" text-anchor="none" style="mix-blend-mode: normal"><g transform="scale(4,4)"><path d="M52,57h-40c-2.757,0 -5,-2.243 -5,-5v-40c0,-2.757 2.243,-5 5,-5h40c2.757,0 5,2.243 5,5v40c0,2.757 -2.243,5 -5,5zM12,9c-1.654,0 -3,1.346 -3,3v40c0,1.654 1.346,3 3,3h40c1.654,0 3,-1.346 3,-3v-40c0,-1.654 -1.346,-3 -3,-3z" fill="url(#color-1)"></path><path d="M48,51h-32c-1.654,0 -3,-1.346 -3,-3v-32c0,-1.654 1.346,-3 3,-3h32c1.654,0 3,1.346 3,3v1.418l-19.005,18.749l-7.872,-7.872l-2.828,2.824l9.99,9.791c0.188,0.188 0.439,0.09 0.706,0.09c0.001,0 0.002,0 0.003,0c0.269,0 0.52,0.097 0.708,-0.094l18.298,-18.343v25.437c0,1.654 -1.346,3 -3,3zM16,15c-0.552,0 -1,0.448 -1,1v32c0,0.552 0.448,1 1,1h32c0.552,0 1,-0.448 1,-1v-20.562l-14.875,14.874c-0.566,0.573 -1.32,0.688 -2.125,0.688c-0.003,0 -0.006,0 -0.009,0c-0.801,0 -1.554,-0.109 -2.12,-0.676l-9.99,-9.889c-0.781,-0.78 -0.781,-2 0,-2.781l2.824,-2.799c0.781,-0.781 2.051,-0.769 2.832,0.013l6.468,6.474l16.995,-16.76v-0.582c0,-0.552 -0.448,-1 -1,-1z" fill="url(#color-2)"></path><path d="M27,47h-9c-0.552,0 -1,-0.448 -1,-1v-9z" fill="url(#color-3)"></path></g></g></svg>