<svg xmlns="http://www.w3.org/2000/svg" xmlns:xlink="http://www.w3.org/1999/xlink" viewBox="0,0,256,256" width="64px" height="64px"><defs><linearGradient x1="32" y1="5.875" x2="32" y2="57.948" gradientUnits="userSpaceOnUse" id="color-1"><stop offset="0" stop-color="#0000ff"></stop><stop offset="1" stop-color="#952ffa"></stop></linearGradient><linearGradient x1="33" y1="5.875" x2="33" y2="57.948" gradientUnits="userSpaceOnUse" id="color-2"><stop offset="0" stop-color="#0000ff"></stop><stop offset="1" stop-color="#952ffa"></stop></linearGradient><linearGradient x1="43" y1="5.875" x2="43" y2="57.948" gradientUnits="userSpaceOnUse" id="color-3"><stop offset="0" stop-color="#0000ff"></stop><stop offset="1" stop-color="#952ffa"></stop></linearGradient><linearGradient x1="21" y1="5.875" x2="21" y2="57.948" gradientUnits="userSpaceOnUse" id="color-4"><stop offset="0" stop-color="#0000ff"></stop><stop offset="1" stop-color="#952ffa"></stop></linearGradient><linearGradient x1="43" y1="5.875" x2="43" y2="57.948" gradientUnits="userSpaceOnUse" id="color-5"><stop offset="0" stop-color="#0000ff"></stop><stop offset="1" stop-color="#952ffa"></stop></linearGradient><linearGradient x1="21" y1="5.875" x2="21" y2="57.948" gradientUnits="userSpaceOnUse" id="color-6"><stop offset="0" stop-color="#0000ff"></stop><stop offset="1" stop-color="#952ffa"></stop></linearGradient><linearGradient x1="32" y1="5.875" x2="32" y2="57.948" gradientUnits="userSpaceOnUse" id="color-7"><stop offset="0" stop-color="#0000ff"></stop><stop offset="1" stop-color="#952ffa"></stop></linearGradient><linearGradient x1="32" y1="5.875" x2="32" y2="57.948" gradientUnits="userSpaceOnUse" id="color-8"><stop offset="0" stop-color="#0000ff"></stop><stop offset="1" stop-color="#952ffa"></stop></linearGradient><linearGradient x1="43" y1="53.375" x2="43" y2="56.88" gradientUnits="userSpaceOnUse" id="color-9"><stop offset="0" stop-color="#ffffff" stop-opacity="0"></stop><stop offset="1" stop-color="#ffffff" stop-opacity="0"></stop></linearGradient><linearGradient x1="21" y1="53.375" x2="21" y2="56.88" gradientUnits="userSpaceOnUse" id="color-10"><stop offset="0" stop-color="#ffffff" stop-opacity="0"></stop><stop offset="1" stop-color="#ffffff" stop-opacity="0"></stop></linearGradient></defs><g fill="none" fill-rule="nonzero" stroke="none" stroke-width="1" stroke-linecap="butt" stroke-linejoin="miter" stroke-miterlimit="10" stroke-dasharray="" stroke-dashoffset="0" font-family="none" font-weight="none" font-size="none" text-anchor="none" style="mix-blend-mode: normal"><g transform="scale(4,4)"><path d="M53,24v-2c0,-1.103 -0.897,-2 -2,-2h-12v-2h2c1.103,0 2,-0.897 2,-2v-8c0,-1.103 -0.897,-2 -2,-2h-18c-1.103,0 -2,0.897 -2,2v8c0,1.103 0.897,2 2,2h2v2h-12c-1.103,0 -2,0.897 -2,2v2c0,1.103 0.897,2 2,2v30h-2v2h2h38h2v-2h-2v-30c1.103,0 2,-0.897 2,-2zM23,8h18l0.002,8h-18.002zM27,18h10v2h-10zM13,22h38l0.002,2h-38.002zM15,54h12v2h-12zM35,56h-6v-12h6zM37,56v-2h12v2zM49,52h-12v-8c0,-1.103 -0.897,-2 -2,-2h-6c-1.103,0 -2,0.897 -2,2v8h-12v-26h34z" fill="url(#color-1)"></path><path d="M32,48h2v4h-2z" fill="url(#color-2)"></path><path d="M47,42h-8v8h8zM45,48h-4v-4h4z" fill="url(#color-3)"></path><path d="M25,50v-8h-8v8zM19,44h4v4h-4z" fill="url(#color-4)"></path><path d="M47,30h-8v8h8zM45,36h-4v-4h4z" fill="url(#color-5)"></path><path d="M25,30h-8v8h8zM23,36h-4v-4h4z" fill="url(#color-6)"></path><path d="M36,30h-8v8h8zM34,36h-4v-4h4z" fill="url(#color-7)"></path><path d="M28,11h8v2h-8z" fill="url(#color-8)"></path><path d="M37,54h12v2h-12z" fill="url(#color-9)"></path><path d="M15,54h12v2h-12z" fill="url(#color-10)"></path></g></g></svg>