<svg xmlns="http://www.w3.org/2000/svg" xmlns:xlink="http://www.w3.org/1999/xlink" viewBox="0,0,256,256" width="64px" height="64px"><defs><linearGradient x1="32" y1="18.5" x2="32" y2="32.009" gradientUnits="userSpaceOnUse" id="color-1"><stop offset="0" stop-color="#0000ff"></stop><stop offset="1" stop-color="#952ffa"></stop></linearGradient><linearGradient x1="32" y1="9.936" x2="32" y2="53.329" gradientUnits="userSpaceOnUse" id="color-2"><stop offset="0" stop-color="#0000ff"></stop><stop offset="1" stop-color="#952ffa"></stop></linearGradient><linearGradient x1="32" y1="9.936" x2="32" y2="53.329" gradientUnits="userSpaceOnUse" id="color-3"><stop offset="0" stop-color="#0000ff"></stop><stop offset="1" stop-color="#952ffa"></stop></linearGradient><linearGradient x1="32" y1="9.936" x2="32" y2="53.329" gradientUnits="userSpaceOnUse" id="color-4"><stop offset="0" stop-color="#0000ff"></stop><stop offset="1" stop-color="#952ffa"></stop></linearGradient><linearGradient x1="32" y1="9.833" x2="32" y2="54.719" gradientUnits="userSpaceOnUse" id="color-5"><stop offset="0" stop-color="#0000ff"></stop><stop offset="1" stop-color="#952ffa"></stop></linearGradient></defs><g fill="none" fill-rule="nonzero" stroke="none" stroke-width="1" stroke-linecap="butt" stroke-linejoin="miter" stroke-miterlimit="10" stroke-dasharray="" stroke-dashoffset="0" font-family="none" font-weight="none" font-size="none" text-anchor="none" style="mix-blend-mode: normal"><g transform="scale(4,4)"><path d="M44.625,20.876l-11.389,9.664c-0.723,0.613 -1.75,0.613 -2.473,0l-11.389,-9.664c-0.732,-0.622 -0.318,-1.876 0.621,-1.876h24.009c0.94,0 1.354,1.254 0.621,1.876z" fill="url(#color-1)"></path><rect x="18" y="48" width="28" height="2" fill="url(#color-2)"></rect><rect x="25" y="44" width="14" height="2" fill="url(#color-3)"></rect><path d="M52,14h-40c-2.757,0 -5,2.243 -5,5v30c0,2.757 2.243,5 5,5h40c2.757,0 5,-2.243 5,-5v-30c0,-2.757 -2.243,-5 -5,-5zM12,16h40c0.933,0 1.758,0.437 2.308,1.107l-20.387,16.99c-1.113,0.928 -2.729,0.928 -3.842,0l-20.387,-16.99c0.55,-0.67 1.375,-1.107 2.308,-1.107zM9,19.136l14.113,11.761l-14.113,11.76zM55,49c0,1.654 -1.346,3 -3,3h-40c-1.654,0 -3,-1.346 -3,-3v-3.738l15.676,-13.063l4.122,3.435c0.928,0.772 2.065,1.159 3.202,1.159c1.137,0 2.274,-0.387 3.202,-1.159l4.122,-3.435l15.676,13.063zM55,42.657l-14.113,-11.761l14.113,-11.76z" fill="url(#color-4)"></path><path d="M12,10h40v2h-40z" fill="url(#color-5)"></path></g></g></svg>