<svg xmlns="http://www.w3.org/2000/svg" xmlns:xlink="http://www.w3.org/1999/xlink" viewBox="0,0,256,256" width="64px" height="64px"><defs><linearGradient x1="32" y1="3" x2="32" y2="61.751" gradientUnits="userSpaceOnUse" id="color-1"><stop offset="0" stop-color="#0000ff"></stop><stop offset="1" stop-color="#952ffa"></stop></linearGradient><linearGradient x1="32" y1="3" x2="32" y2="61.751" gradientUnits="userSpaceOnUse" id="color-2"><stop offset="0" stop-color="#0000ff"></stop><stop offset="1" stop-color="#952ffa"></stop></linearGradient><linearGradient x1="32" y1="16.333" x2="32" y2="38.742" gradientUnits="userSpaceOnUse" id="color-3"><stop offset="0" stop-color="#0000ff"></stop><stop offset="1" stop-color="#952ffa"></stop></linearGradient><linearGradient x1="31" y1="41.667" x2="31" y2="46.333" gradientUnits="userSpaceOnUse" id="color-4"><stop offset="0" stop-color="#0000ff"></stop><stop offset="1" stop-color="#952ffa"></stop></linearGradient></defs><g fill="none" fill-rule="nonzero" stroke="none" stroke-width="1" stroke-linecap="butt" stroke-linejoin="miter" stroke-miterlimit="10" stroke-dasharray="" stroke-dashoffset="0" font-family="none" font-weight="none" font-size="none" text-anchor="none" style="mix-blend-mode: normal"><g transform="scale(4,4)"><path d="M32,58c-14.336,0 -26,-11.663 -26,-26c0,-14.337 11.664,-26 26,-26c14.336,0 26,11.663 26,26c0,14.337 -11.664,26 -26,26zM32,8c-13.233,0 -24,10.767 -24,24c0,13.233 10.767,24 24,24c13.233,0 24,-10.767 24,-24c0,-13.233 -10.767,-24 -24,-24z" fill="url(#color-1)"></path><path d="M32,54c-12.131,0 -22,-9.869 -22,-22c0,-12.131 9.869,-22 22,-22c12.131,0 22,9.869 22,22c0,12.131 -9.869,22 -22,22zM32,12c-11.028,0 -20,8.972 -20,20c0,11.028 8.972,20 20,20c11.028,0 20,-8.972 20,-20c0,-11.028 -8.972,-20 -20,-20z" fill="url(#color-2)"></path><path d="M32,38h-2v-3c0,-1.654 1.346,-3 3,-3h2c1.654,0 3,-1.346 3,-3v-6c0,-1.654 -1.346,-3 -3,-3h-6c-1.654,0 -3,1.346 -3,3v3h-2v-3c0,-2.757 2.243,-5 5,-5h6c2.757,0 5,2.243 5,5v6c0,2.757 -2.243,5 -5,5h-2c-0.551,0 -1,0.448 -1,1z" fill="url(#color-3)"></path><path d="M31,46c-1.103,0 -2,-0.897 -2,-2c0,-1.103 0.897,-2 2,-2c1.103,0 2,0.897 2,2c0,1.103 -0.897,2 -2,2zM31,43.999v0z" fill="url(#color-4)"></path></g></g></svg>