<svg xmlns="http://www.w3.org/2000/svg" xmlns:xlink="http://www.w3.org/1999/xlink" viewBox="0,0,256,256" width="64px" height="64px"><defs><linearGradient x1="17" y1="46.25" x2="17" y2="55.004" gradientUnits="userSpaceOnUse" id="color-1"><stop offset="0" stop-color="#952ffa"></stop><stop offset="1" stop-color="#952ffa"></stop></linearGradient><linearGradient x1="32" y1="5.333" x2="32" y2="58.343" gradientUnits="userSpaceOnUse" id="color-2"><stop offset="0" stop-color="#0000ff"></stop><stop offset="1" stop-color="#952ffa"></stop></linearGradient><linearGradient x1="28" y1="5.333" x2="28" y2="58.343" gradientUnits="userSpaceOnUse" id="color-3"><stop offset="0" stop-color="#0000ff"></stop><stop offset="1" stop-color="#952ffa"></stop></linearGradient><linearGradient x1="28" y1="5.333" x2="28" y2="58.343" gradientUnits="userSpaceOnUse" id="color-4"><stop offset="0" stop-color="#0000ff"></stop><stop offset="1" stop-color="#952ffa"></stop></linearGradient><linearGradient x1="32" y1="5.333" x2="32" y2="58.343" gradientUnits="userSpaceOnUse" id="color-5"><stop offset="0" stop-color="#0000ff"></stop><stop offset="1" stop-color="#952ffa"></stop></linearGradient><linearGradient x1="32" y1="5.333" x2="32" y2="58.343" gradientUnits="userSpaceOnUse" id="color-6"><stop offset="0" stop-color="#0000ff"></stop><stop offset="1" stop-color="#952ffa"></stop></linearGradient></defs><g fill="none" fill-rule="nonzero" stroke="none" stroke-width="1" stroke-linecap="butt" stroke-linejoin="miter" stroke-miterlimit="10" stroke-dasharray="" stroke-dashoffset="0" font-family="none" font-weight="none" font-size="none" text-anchor="none" style="mix-blend-mode: normal"><g transform="scale(4,4)"><path d="M13,46v6c0,1.105 0.895,2 2,2h6z" fill="url(#color-1)"></path><path d="M52,37v-25c0,-1.302 -0.839,-2.402 -2,-2.816v-0.184c0,-1.654 -1.346,-3 -3,-3h-30c-1.654,0 -3,1.346 -3,3v0.184c-1.161,0.414 -2,1.514 -2,2.816v12c-1.654,0 -3,1.346 -3,3v26c0,2.757 2.243,5 5,5h37v0c0.071,0 0.142,-0.002 0.214,-0.005c2.123,-0.111 3.786,-1.941 3.786,-4.165v-13.83c0,-1.654 -1.346,-3 -3,-3zM44,11h5c0.552,0 1,0.448 1,1v6h-5c-0.552,0 -1,-0.448 -1,-1zM17,8h30c0.552,0 1,0.448 1,1h-32c0,-0.552 0.448,-1 1,-1zM11,53v-26c0,-0.552 0.448,-1 1,-1h7.93c0.335,0 0.646,0.166 0.832,0.445l2.812,4.216c0.557,0.839 1.491,1.339 2.499,1.339h19.927c0.552,0 1,0.448 1,1v21c0,0.709 0.209,1.394 0.56,2h-33.56c-1.654,0 -3,-1.346 -3,-3zM53,53.83c0,1.141 -0.849,2.112 -1.891,2.167c-0.552,0.025 -1.084,-0.165 -1.486,-0.547c-0.401,-0.382 -0.623,-0.896 -0.623,-1.45v-21c0,-1.654 -1.346,-3 -3,-3h-19.927c-0.337,0 -0.649,-0.167 -0.836,-0.447l-2.812,-4.217c-0.557,-0.837 -1.49,-1.336 -2.495,-1.336h-5.93v-12c0,-0.552 0.448,-1 1,-1h27v6c0,1.654 1.346,3 3,3h5v34c0,0.553 0.447,1 1,1c0.553,0 1,-0.447 1,-1v-15c0.552,0 1,0.448 1,1z" fill="url(#color-2)"></path><path d="M18,14h20v2h-20z" fill="url(#color-3)"></path><path d="M18,18h20v2h-20z" fill="url(#color-4)"></path><path d="M26,22h12v2h-12z" fill="url(#color-5)"></path><path d="M26,26h12v2h-12z" fill="url(#color-6)"></path></g></g></svg>