<svg xmlns="http://www.w3.org/2000/svg" xmlns:xlink="http://www.w3.org/1999/xlink" viewBox="0,0,256,256" width="64px" height="64px"><defs><linearGradient x1="40" y1="16" x2="40" y2="30" gradientUnits="userSpaceOnUse" id="color-1"><stop offset="0" stop-color="#0000ff"></stop><stop offset="1" stop-color="#952ffa"></stop></linearGradient><linearGradient x1="40" y1="0.447" x2="40" y2="48.774" gradientUnits="userSpaceOnUse" id="color-2"><stop offset="0" stop-color="#0000ff"></stop><stop offset="1" stop-color="#952ffa"></stop></linearGradient><linearGradient x1="34" y1="0.447" x2="34" y2="48.774" gradientUnits="userSpaceOnUse" id="color-3"><stop offset="0" stop-color="#0000ff"></stop><stop offset="1" stop-color="#952ffa"></stop></linearGradient><linearGradient x1="29" y1="0.447" x2="29" y2="48.774" gradientUnits="userSpaceOnUse" id="color-4"><stop offset="0" stop-color="#0000ff"></stop><stop offset="1" stop-color="#952ffa"></stop></linearGradient><linearGradient x1="46" y1="0.447" x2="46" y2="48.774" gradientUnits="userSpaceOnUse" id="color-5"><stop offset="0" stop-color="#0000ff"></stop><stop offset="1" stop-color="#952ffa"></stop></linearGradient><linearGradient x1="51" y1="0.447" x2="51" y2="48.774" gradientUnits="userSpaceOnUse" id="color-6"><stop offset="0" stop-color="#0000ff"></stop><stop offset="1" stop-color="#952ffa"></stop></linearGradient><linearGradient x1="32" y1="0.447" x2="32" y2="48.774" gradientUnits="userSpaceOnUse" id="color-7"><stop offset="0" stop-color="#0000ff"></stop><stop offset="1" stop-color="#952ffa"></stop></linearGradient><linearGradient x1="40" y1="0.447" x2="40" y2="48.774" gradientUnits="userSpaceOnUse" id="color-8"><stop offset="0" stop-color="#0000ff"></stop><stop offset="1" stop-color="#952ffa"></stop></linearGradient></defs><g fill="none" fill-rule="nonzero" stroke="none" stroke-width="1" stroke-linecap="butt" stroke-linejoin="miter" stroke-miterlimit="10" stroke-dasharray="" stroke-dashoffset="0" font-family="none" font-weight="none" font-size="none" text-anchor="none" style="mix-blend-mode: normal"><g transform="scale(4,4)"><path d="M41,30v-2h1c1.103,0 2,-0.897 2,-2v-2c0,-1.103 -0.897,-2 -2,-2h-4v-2h6v-2h-3v-2h-2v2h-1c-1.103,0 -2,0.897 -2,2v2c0,1.103 0.897,2 2,2h4v2h-6v2h3v2z" fill="url(#color-1)"></path><rect x="39" y="0" width="2" height="7" fill="url(#color-2)"></rect><rect x="33" y="2" width="2" height="7" fill="url(#color-3)"></rect><rect x="28" y="7" width="2" height="7" fill="url(#color-4)"></rect><rect x="45" y="2" width="2" height="7" fill="url(#color-5)"></rect><rect x="50" y="7" width="2" height="7" fill="url(#color-6)"></rect><path d="M56.428,38.816c-0.936,-0.694 -2.188,-0.895 -3.436,-0.551l-15.289,4.226c0.188,-0.464 0.296,-0.969 0.296,-1.5c0.001,-2.2 -1.793,-3.991 -3.999,-3.991h-9.102c-0.342,-1.754 -1.621,-4 -4.898,-4h-4c0,-1.654 -1.346,-3 -3,-3h-4c-1.654,0 -3,1.346 -3,3v16c0,1.654 1.346,3 3,3h4c1.654,0 3,-1.346 3,-3v-0.753l12.14,8.202c1.523,1.032 3.297,1.551 5.074,1.551c1.642,0 3.286,-0.442 4.742,-1.331l18.174,-11.101c1.153,-0.705 1.87,-1.982 1.87,-3.334v-0.312c0,-1.233 -0.573,-2.365 -1.572,-3.106zM14,49c0,0.551 -0.448,1 -1,1h-1v-4h-2v4h-1c-0.552,0 -1,-0.449 -1,-1v-16c0,-0.551 0.448,-1 1,-1h4c0.552,0 1,0.449 1,1zM56,42.234c0,0.66 -0.35,1.284 -0.913,1.627l-18.174,11.101c-2.365,1.443 -5.368,1.378 -7.653,-0.169l-13.26,-8.959v-10.834h4c2.823,0 2.994,2.503 3,3v1h11c1.103,0 2,0.893 2,1.99c0,1.108 -0.897,2.01 -2,2.01h-5h-5v2h5h5h2l17.525,-4.807c0.64,-0.178 1.278,-0.092 1.71,0.229c0.486,0.36 0.765,0.907 0.765,1.5z" fill="url(#color-7)"></path><path d="M40,35c6.617,0 12,-5.383 12,-12c0,-6.617 -5.383,-12 -12,-12c-6.617,0 -12,5.383 -12,12c0,6.617 5.383,12 12,12zM40,13c5.514,0 10,4.486 10,10c0,5.514 -4.486,10 -10,10c-5.514,0 -10,-4.486 -10,-10c0,-5.514 4.486,-10 10,-10z" fill="url(#color-8)"></path></g></g></svg>