<svg xmlns="http://www.w3.org/2000/svg" xmlns:xlink="http://www.w3.org/1999/xlink" viewBox="0,0,256,256" width="64px" height="64px"><defs><linearGradient x1="30.029" y1="5.625" x2="30.029" y2="52.231" gradientUnits="userSpaceOnUse" id="color-1"><stop offset="0" stop-color="#0000ff"></stop><stop offset="1" stop-color="#952ffa"></stop></linearGradient><linearGradient x1="37.078" y1="16.375" x2="37.078" y2="58.839" gradientUnits="userSpaceOnUse" id="color-2"><stop offset="0" stop-color="#0000ff"></stop><stop offset="1" stop-color="#952ffa"></stop></linearGradient></defs><g fill="none" fill-rule="nonzero" stroke="none" stroke-width="1" stroke-linecap="butt" stroke-linejoin="miter" stroke-miterlimit="10" stroke-dasharray="" stroke-dashoffset="0" font-family="none" font-weight="none" font-size="none" text-anchor="none" style="mix-blend-mode: normal"><g transform="scale(4,4)"><path d="M47.515,10.114c-2.375,-2.73 -6.581,-4.114 -12.503,-4.114h-15.404c-1.59,0 -2.92,1.147 -3.164,2.724l-6.416,40.806c-0.099,0.631 0.063,1.23 0.453,1.687c0.426,0.497 1.097,0.783 1.841,0.783h9.678v-2h-9.678c-0.212,0 -0.309,-0.067 -0.317,-0.161l6.416,-40.808c0.093,-0.597 0.592,-1.031 1.187,-1.031h15.403c5.317,0 9.017,1.153 10.994,3.426c1.648,1.896 2.264,3.942 2.011,6.853c-0.173,-0.069 -0.348,-0.144 -0.519,-0.201l-0.14,-0.055c-0.114,-0.047 -0.23,-0.093 -0.347,-0.128l-0.008,-0.002c-0.329,-0.097 -0.67,-0.185 -1.023,-0.265c-0.117,-0.026 -0.235,-0.06 -0.354,-0.093c-0.235,-0.066 -0.475,-0.131 -0.717,-0.17c-1.524,-0.249 -2.842,-0.365 -4.144,-0.365h-12.074c-0.548,0 -1.017,0.227 -1.269,0.349c-0.853,0.414 -1.475,1.268 -1.623,2.228l-2.572,16.46l-0.073,0.598l1.98,0.276c0.105,-0.672 0.702,-0.911 1.181,-0.911h4.52c10.568,0 16.906,-5.074 18.838,-15.079c0.051,-0.259 0.095,-0.549 0.135,-0.814l0.138,-0.892l-0.028,-0.015c0.479,-3.847 -0.244,-6.603 -2.402,-9.086zM47.709,20.541c-1.749,9.057 -7.269,13.459 -16.875,13.459h-4.52c-0.263,0 -0.517,0.028 -0.759,0.082l2.22,-14.197c0.049,-0.317 0.253,-0.606 0.52,-0.735c0.084,-0.042 0.306,-0.15 0.395,-0.15h12.073c1.192,0 2.407,0.107 3.823,0.338c0.169,0.028 0.335,0.076 0.499,0.123c0.155,0.043 0.309,0.086 0.458,0.119c0.307,0.069 0.604,0.146 0.893,0.231c0.056,0.017 0.109,0.041 0.163,0.063c0.087,0.036 0.174,0.07 0.262,0.1c0.286,0.096 0.576,0.212 0.886,0.355c-0.013,0.072 -0.025,0.143 -0.038,0.212z" fill="url(#color-1)"></path><path d="M30.333,58h-8.016c-0.636,0 -1.235,-0.273 -1.644,-0.751c-0.405,-0.473 -0.582,-1.1 -0.485,-1.722l5.632,-35.922c0.152,-0.984 0.771,-1.849 1.614,-2.256c0.289,-0.139 0.724,-0.349 1.256,-0.349h12.073c1.299,0 2.616,0.116 4.146,0.366c0.257,0.042 0.511,0.102 0.76,0.161l0.31,0.073c0.315,0.071 0.617,0.16 0.91,0.246l0.115,0.034c0.113,0.034 0.22,0.07 0.325,0.105l0.158,0.053c0.646,0.216 1.259,0.478 1.832,0.783l0.178,0.102c0.938,0.519 1.693,1.112 2.298,1.805c2.06,2.368 2.676,5.776 1.835,10.133c-1.683,8.719 -7.27,13.139 -16.604,13.139h-1.199c-0.439,0 -0.842,0.376 -0.916,0.855l-0.099,0.596l-1.592,10.098c-0.223,1.408 -1.44,2.451 -2.887,2.451zM25.25,36.099l-3.085,19.736c-0.008,0.046 0.001,0.082 0.027,0.113c0.021,0.024 0.059,0.052 0.125,0.052h8.016c0.458,0 0.845,-0.334 0.918,-0.795l0.083,-0.44l1.603,-10.225c0.225,-1.444 1.468,-2.54 2.891,-2.54h1.199c8.354,0 13.144,-3.768 14.641,-11.518c0.729,-3.775 0.277,-6.536 -1.38,-8.44c-0.448,-0.514 -1.028,-0.964 -1.773,-1.377l-0.163,-0.094c-0.446,-0.237 -0.956,-0.455 -1.487,-0.632l-0.541,-0.174c-0.253,-0.075 -0.513,-0.152 -0.78,-0.213l-0.341,-0.08c-0.201,-0.048 -0.404,-0.098 -0.612,-0.132c-1.424,-0.232 -2.639,-0.34 -3.827,-0.34h-12.074c-0.074,0 -0.27,0.094 -0.387,0.15c-0.251,0.122 -0.455,0.428 -0.507,0.763l-2.546,16.186z" fill="url(#color-2)"></path></g></g></svg>