<svg xmlns="http://www.w3.org/2000/svg" xmlns:xlink="http://www.w3.org/1999/xlink" viewBox="0,0,256,256" width="64px" height="64px"><defs><linearGradient x1="10" y1="24.745" x2="10" y2="33.429" gradientUnits="userSpaceOnUse" id="color-1"><stop offset="0" stop-color="#0000ff"></stop><stop offset="1" stop-color="#952ffa"></stop></linearGradient><linearGradient x1="54" y1="28" x2="54" y2="37.899" gradientUnits="userSpaceOnUse" id="color-2"><stop offset="0" stop-color="#0000ff"></stop><stop offset="1" stop-color="#952ffa"></stop></linearGradient><linearGradient x1="38.15" y1="7.383" x2="38.15" y2="55.827" gradientUnits="userSpaceOnUse" id="color-3"><stop offset="0" stop-color="#0000ff"></stop><stop offset="1" stop-color="#952ffa"></stop></linearGradient><linearGradient x1="25.85" y1="7.383" x2="25.85" y2="55.827" gradientUnits="userSpaceOnUse" id="color-4"><stop offset="0" stop-color="#0000ff"></stop><stop offset="1" stop-color="#952ffa"></stop></linearGradient><linearGradient x1="32" y1="20" x2="32" y2="43.099" gradientUnits="userSpaceOnUse" id="color-5"><stop offset="0" stop-color="#0000ff"></stop><stop offset="1" stop-color="#952ffa"></stop></linearGradient><linearGradient x1="32.002" y1="19.998" x2="32.002" y2="43.097" gradientUnits="userSpaceOnUse" id="color-6"><stop offset="0" stop-color="#0000ff"></stop><stop offset="1" stop-color="#952ffa"></stop></linearGradient><linearGradient x1="32" y1="20" x2="32" y2="43.099" gradientUnits="userSpaceOnUse" id="color-7"><stop offset="0" stop-color="#0000ff"></stop><stop offset="1" stop-color="#952ffa"></stop></linearGradient></defs><g fill="none" fill-rule="nonzero" stroke="none" stroke-width="1" stroke-linecap="butt" stroke-linejoin="miter" stroke-miterlimit="10" stroke-dasharray="" stroke-dashoffset="0" font-family="none" font-weight="none" font-size="none" text-anchor="none" style="mix-blend-mode: normal"><g transform="scale(4,4)"><path d="M10,24l-6,9h12z" fill="url(#color-1)"></path><path d="M54,40l-6,-9h12z" fill="url(#color-2)"></path><path d="M60.7,30.1c-0.4,-0.7 -1.1,-1.1 -1.8,-1.1h-3.9c-0.6,-12.2 -10.7,-22 -23,-22c-6.4,0 -12.3,2.6 -16.7,7.2l1.5,1.4c3.9,-4.3 9.4,-6.6 15.2,-6.6c11.2,0 20.4,8.9 20.9,20h-3.8c-0.8,0 -1.4,0.4 -1.8,1.1c-0.4,0.7 -0.4,1.6 0,2.3l3.9,6.9c0.6,1.1 1.7,1.7 2.8,1.7v0c1.2,0 2.2,-0.6 2.8,-1.7l3.9,-6.9c0.4,-0.8 0.4,-1.6 0,-2.3zM59,31.4l-3.9,6.9c-0.2,0.5 -0.6,0.7 -1.1,0.7v0c-0.5,0 -0.9,-0.3 -1.1,-0.7l-3.9,-6.9c-0.1,-0.1 0,-0.3 0,-0.3c0,-0.1 0.1,-0.1 0.1,-0.1h9.7c0,0 0.1,0 0.1,0.1c0.1,0 0.1,0.1 0.1,0.3z" fill="url(#color-3)"></path><path d="M32,55c-11.2,0 -20.4,-8.9 -20.9,-20h3.8c0.8,0 1.4,-0.4 1.8,-1.1c0.4,-0.7 0.4,-1.6 0,-2.3l-3.9,-6.9c-0.6,-1.1 -1.6,-1.7 -2.8,-1.7v0c-1.2,0 -2.2,0.6 -2.8,1.7l-3.9,6.9c-0.4,0.7 -0.4,1.6 0,2.3c0.4,0.7 1.1,1.1 1.9,1.1h3.8c0.5,12.2 10.6,22 23,22c6.4,0 12.3,-2.6 16.7,-7.2l-1.5,-1.4c-3.9,4.3 -9.4,6.6 -15.2,6.6zM5.2,33c0,0 -0.1,0 -0.1,-0.1c0,0 -0.1,-0.2 0,-0.3l3.9,-6.9c0.1,-0.4 0.5,-0.7 1,-0.7c0.5,0 0.9,0.3 1.1,0.7l3.9,6.9c0.1,0.1 0,0.3 0,0.3c0,0.1 -0.1,0.1 -0.1,0.1z" fill="url(#color-4)"></path><path d="M36,41h-11v-2h11c0.551,0 1,-0.449 1,-1v-4c0,-0.551 -0.449,-1 -1,-1h-8c-1.654,0 -3,-1.346 -3,-3v-5c0,-1.654 1.346,-3 3,-3h10v2h-10c-0.551,0 -1,0.449 -1,1v5c0,0.551 0.449,1 1,1h8c1.654,0 3,1.346 3,3v4c0,1.654 -1.346,3 -3,3z" fill="url(#color-5)"></path><path d="M31.005,22.752l-0.005,-2.75l2,-0.004l0.005,2.75z" fill="url(#color-6)"></path><path d="M31,40h2v3h-2z" fill="url(#color-7)"></path></g></g></svg>