<svg xmlns="http://www.w3.org/2000/svg" xmlns:xlink="http://www.w3.org/1999/xlink" viewBox="0,0,256,256" width="64px" height="64px"><defs><linearGradient x1="47" y1="31.833" x2="47" y2="46.113" gradientUnits="userSpaceOnUse" id="color-1"><stop offset="0" stop-color="#0000ff"></stop><stop offset="1" stop-color="#952ffa"></stop></linearGradient><linearGradient x1="32" y1="6.5" x2="32" y2="57.72" gradientUnits="userSpaceOnUse" id="color-2"><stop offset="0" stop-color="#0000ff"></stop><stop offset="1" stop-color="#952ffa"></stop></linearGradient><linearGradient x1="48.978" y1="6.5" x2="48.978" y2="57.72" gradientUnits="userSpaceOnUse" id="color-3"><stop offset="0" stop-color="#0000ff"></stop><stop offset="1" stop-color="#952ffa"></stop></linearGradient><linearGradient x1="19.5" y1="6.5" x2="19.5" y2="57.72" gradientUnits="userSpaceOnUse" id="color-4"><stop offset="0" stop-color="#0000ff"></stop><stop offset="1" stop-color="#952ffa"></stop></linearGradient></defs><g fill="none" fill-rule="nonzero" stroke="none" stroke-width="1" stroke-linecap="butt" stroke-linejoin="miter" stroke-miterlimit="10" stroke-dasharray="" stroke-dashoffset="0" font-family="none" font-weight="none" font-size="none" text-anchor="none" style="mix-blend-mode: normal"><g transform="scale(4,4)"><path d="M47,32c-3.86599,0 -7,3.13401 -7,7c0,3.86599 3.13401,7 7,7c3.86599,0 7,-3.13401 7,-7c0,-3.86599 -3.13401,-7 -7,-7z" fill="url(#color-1)"></path><path d="M56,39c0,4.962 -4.037,9 -9,9c-4.963,0 -9,-4.038 -9,-9c0,-4.962 4.037,-9 9,-9c2.372,0 4.609,0.914 6.302,2.574l1.4,-1.428c-1.334,-1.309 -2.948,-2.232 -4.702,-2.727v-5.532c0,-1.525 -1.163,-2.808 -2.706,-2.985c-5.997,-0.685 -11.409,-5.062 -13.469,-10.892c-0.426,-1.202 -1.561,-2.01 -2.828,-2.01h-5.994c-1.267,0 -2.402,0.808 -2.829,2.011c-2.059,5.829 -7.471,10.206 -13.468,10.892c-1.543,0.177 -2.706,1.46 -2.706,2.985v11.621c0,12.111 9.624,22.198 21.454,22.485c0.183,0.004 0.363,0.006 0.544,0.006c6.282,0 12.195,-2.65 16.384,-7.328c0.841,0.206 1.714,0.328 2.618,0.328c6.065,0 11,-4.935 11,-11zM27.503,54.994c-10.754,-0.261 -19.503,-9.451 -19.503,-20.486v-11.62c0,-0.516 0.393,-0.936 0.933,-0.998c6.74,-0.771 12.819,-5.679 15.127,-12.213c0.143,-0.405 0.522,-0.677 0.943,-0.677h5.994c0.421,0 0.8,0.272 0.942,0.677c2.309,6.534 8.388,11.442 15.128,12.213c0.54,0.062 0.933,0.482 0.933,0.998v5.161c-0.331,-0.031 -0.664,-0.049 -1,-0.049c-6.065,0 -11,4.935 -11,11c0,4.394 2.596,8.184 6.33,9.945c-3.882,3.992 -9.222,6.183 -14.827,6.049z" fill="url(#color-2)"></path><path d="M46.371,40.706l-3.664,-3.664l-1.414,1.414l3.664,3.664c0.584,0.584 1.354,0.879 2.125,0.879c0.712,0 1.425,-0.251 1.994,-0.757l7.588,-6.745l-1.328,-1.495l-7.588,6.745c-0.395,0.353 -1,0.336 -1.377,-0.041z" fill="url(#color-3)"></path><path d="M24.933,14.895c-3.318,4.99 -8.729,8.73 -14.12,9.76l-0.813,0.155v10.19c0,9.925 8.075,18 18,18h1v-39h-2.406c-0.668,0 -1.289,0.335 -1.661,0.895zM27,50.969c-8.358,-0.518 -15,-7.482 -15,-15.969v-8.555c5.625,-1.33 11.158,-5.271 14.594,-10.446h0.406z" fill="url(#color-4)"></path></g></g></svg>