<svg xmlns="http://www.w3.org/2000/svg" xmlns:xlink="http://www.w3.org/1999/xlink" viewBox="0,0,256,256" width="64px" height="64px"><defs><linearGradient x1="32" y1="20.362" x2="32" y2="29.833" gradientUnits="userSpaceOnUse" id="color-1"><stop offset="0" stop-color="#0000ff"></stop><stop offset="1" stop-color="#952ffa"></stop></linearGradient><linearGradient x1="32" y1="3.596" x2="32" y2="55.816" gradientUnits="userSpaceOnUse" id="color-2"><stop offset="0" stop-color="#0000ff"></stop><stop offset="1" stop-color="#952ffa"></stop></linearGradient><linearGradient x1="32" y1="3.596" x2="32" y2="55.816" gradientUnits="userSpaceOnUse" id="color-3"><stop offset="0" stop-color="#0000ff"></stop><stop offset="1" stop-color="#952ffa"></stop></linearGradient></defs><g fill="none" fill-rule="nonzero" stroke="none" stroke-width="1" stroke-linecap="butt" stroke-linejoin="miter" stroke-miterlimit="10" stroke-dasharray="" stroke-dashoffset="0" font-family="none" font-weight="none" font-size="none" text-anchor="none" style="mix-blend-mode: normal"><g transform="scale(4,4)"><path d="M32,29c-2.2,0 -4,-1.8 -4,-4c0,-2.2 1.8,-4 4,-4c2.2,0 4,1.8 4,4c0,2.2 -1.8,4 -4,4z" fill="url(#color-1)"></path><path d="M51,25c0,-10.5 -8.5,-19 -19,-19c-10.5,0 -19,8.5 -19,19c0,7.8 4.8,14.8 12,17.6v3.4h-4v3.5c0,1.9 1.6,3.5 3.5,3.5h0.5v1.6c0,1.9 1.5,3.4 3.5,3.4h7.1c1.9,0 3.4,-1.5 3.4,-3.4v-1.6h0.5c1.9,0 3.5,-1.6 3.5,-3.5v-3.5h-4v-3.4c7.2,-2.8 12,-9.8 12,-17.6zM37,54.6c0,0.8 -0.7,1.4 -1.5,1.4h-7.1c-0.8,0 -1.5,-0.7 -1.5,-1.4v-1.6h10v1.6zM41,48v1.5c0,0.8 -0.7,1.5 -1.5,1.5h-0.5h-14h-0.5c-0.8,0 -1.5,-0.7 -1.5,-1.5v-1.5h2h14zM37.7,41l-0.7,0.2v4.8h-4v-5h-2v5h-4v-4.8l-0.7,-0.2c-6.7,-2.4 -11.3,-8.8 -11.3,-16c0,-9.4 7.6,-17 17,-17c9.4,0 17,7.6 17,17c0,7.2 -4.6,13.6 -11.3,16z" fill="url(#color-2)"></path><path d="M41,22h-0.5c-0.1,-0.3 -0.2,-0.5 -0.3,-0.8l0.4,-0.4c0.6,-0.6 0.9,-1.3 0.9,-2.1c0,-0.8 -0.3,-1.6 -0.9,-2.1c-1.1,-1.1 -3.1,-1.1 -4.2,0l-0.4,0.4c-0.3,-0.1 -0.5,-0.2 -0.8,-0.3v-0.7c0,-1.7 -1.3,-3 -3,-3c-1.7,0 -3,1.3 -3,3v0.5c-0.3,0.1 -0.5,0.2 -0.8,0.3l-0.4,-0.4c-1.1,-1.1 -3.1,-1.1 -4.2,0c-0.6,0.6 -0.9,1.3 -0.9,2.1c0,0.8 0.3,1.6 0.9,2.1l0.4,0.4c-0.1,0.3 -0.2,0.5 -0.3,0.8h-0.9c-1.7,0 -3,1.3 -3,3c0,1.7 1.3,3 3,3h0.5c0.1,0.3 0.2,0.5 0.3,0.8l-0.4,0.4c-0.6,0.6 -0.9,1.3 -0.9,2.1c0,0.8 0.3,1.6 0.9,2.1c1.1,1.1 3.1,1.1 4.2,0l0.4,-0.3c0.3,0.1 0.5,0.2 0.8,0.3v0.8c0,1.7 1.3,3 3,3c1.7,0 3,-1.3 3,-3v-0.5c0.3,-0.1 0.5,-0.2 0.8,-0.3l0.4,0.4c1.1,1.1 3.1,1.1 4.2,0c0.6,-0.6 0.9,-1.3 0.9,-2.1c0,-0.8 -0.3,-1.6 -0.9,-2.1l-0.4,-0.4c0.1,-0.3 0.2,-0.5 0.3,-0.8h0.9c1.7,0 3,-1.3 3,-3c0,-1.7 -1.3,-3.2 -3,-3.2zM41,26h-0.5c-0.9,0 -1.6,0.5 -1.9,1.4c-0.1,0.2 -0.2,0.4 -0.3,0.6c-0.4,0.8 -0.2,1.7 0.4,2.3l0.4,0.4c0.2,0.2 0.3,0.4 0.3,0.7c0,0.3 -0.1,0.5 -0.3,0.7c-0.4,0.4 -1,0.4 -1.4,0l-0.4,-0.4c-0.6,-0.6 -1.5,-0.8 -2.3,-0.4c-0.2,0.1 -0.4,0.2 -0.6,0.3c-0.8,0.3 -1.4,1 -1.4,1.9v0.5c0,0.6 -0.4,1 -1,1c-0.6,0 -1,-0.4 -1,-1v-0.5c0,-0.9 -0.5,-1.6 -1.4,-1.9c-0.2,-0.1 -0.4,-0.2 -0.6,-0.3c-0.3,-0.1 -0.6,-0.2 -0.9,-0.2c-0.5,0 -1,0.2 -1.4,0.6l-0.4,0.4c-0.4,0.4 -1,0.4 -1.4,0c-0.2,-0.2 -0.3,-0.4 -0.3,-0.7c0,-0.3 0.1,-0.5 0.3,-0.7l0.4,-0.4c0.6,-0.6 0.8,-1.5 0.4,-2.3c-0.1,-0.2 -0.2,-0.4 -0.3,-0.6c-0.3,-0.8 -1,-1.4 -1.9,-1.4h-0.5c-0.6,0 -1,-0.4 -1,-1c0,-0.6 0.4,-1 1,-1h0.5c0.9,0 1.6,-0.5 1.9,-1.4c0.1,-0.2 0.2,-0.4 0.3,-0.6c0.4,-0.8 0.2,-1.7 -0.4,-2.3l-0.4,-0.4c-0.2,-0.2 -0.3,-0.4 -0.3,-0.7c0,-0.3 0.1,-0.5 0.3,-0.7c0.4,-0.4 1,-0.4 1.4,0l0.4,0.4c0.6,0.6 1.5,0.8 2.3,0.4c0.2,-0.1 0.4,-0.2 0.6,-0.3c0.8,-0.3 1.4,-1 1.4,-1.9v-0.5c0,-0.6 0.4,-1 1,-1c0.6,0 1,0.4 1,1v0.5c0,0.9 0.5,1.6 1.4,1.9c0.2,0.1 0.4,0.2 0.6,0.3c0.8,0.4 1.7,0.2 2.3,-0.4l0.4,-0.4c0.4,-0.4 1,-0.4 1.4,0c0.2,0.2 0.3,0.4 0.3,0.7c0,0.3 -0.1,0.5 -0.3,0.7l-0.4,0.4c-0.6,0.6 -0.8,1.5 -0.4,2.3c0.1,0.2 0.2,0.4 0.3,0.6c0.3,0.8 1,1.4 1.9,1.4h0.5c0.6,0 1,0.4 1,1c0,0.6 -0.4,1 -1,1z" fill="url(#color-3)"></path></g></g></svg>