<svg xmlns="http://www.w3.org/2000/svg" xmlns:xlink="http://www.w3.org/1999/xlink" viewBox="0,0,256,256" width="64px" height="64px"><defs><linearGradient x1="30" y1="4.5" x2="30" y2="52.333" gradientUnits="userSpaceOnUse" id="color-1"><stop offset="0" stop-color="#0000ff"></stop><stop offset="1" stop-color="#952ffa"></stop></linearGradient><linearGradient x1="30" y1="4.5" x2="30" y2="52.333" gradientUnits="userSpaceOnUse" id="color-2"><stop offset="0" stop-color="#0000ff"></stop><stop offset="1" stop-color="#952ffa"></stop></linearGradient><linearGradient x1="30" y1="4.5" x2="30" y2="52.333" gradientUnits="userSpaceOnUse" id="color-3"><stop offset="0" stop-color="#0000ff"></stop><stop offset="1" stop-color="#952ffa"></stop></linearGradient><linearGradient x1="30" y1="28" x2="30" y2="34.375" gradientUnits="userSpaceOnUse" id="color-4"><stop offset="0" stop-color="#0000ff"></stop><stop offset="1" stop-color="#952ffa"></stop></linearGradient><linearGradient x1="30" y1="46.125" x2="30" y2="50" gradientUnits="userSpaceOnUse" id="color-5"><stop offset="0" stop-color="#0000ff"></stop><stop offset="1" stop-color="#952ffa"></stop></linearGradient></defs><g fill="none" fill-rule="nonzero" stroke="none" stroke-width="1" stroke-linecap="butt" stroke-linejoin="miter" stroke-miterlimit="10" stroke-dasharray="" stroke-dashoffset="0" font-family="none" font-weight="none" font-size="none" text-anchor="none" style="mix-blend-mode: normal"><g transform="scale(4,4)"><path d="M30,5c-14.337,0 -26,11.663 -26,26c0,6.767 2.586,13.175 7.286,18.051l1.029,1.048l4.249,-4.249l-1.414,-1.414l-2.813,2.813c-1.7,-1.846 -3.061,-3.927 -4.096,-6.154l3.664,-1.518l-0.766,-1.848l-3.668,1.52c-0.843,-2.306 -1.322,-4.745 -1.425,-7.249h3.954v-2h-3.975c0.105,-2.538 0.601,-4.977 1.437,-7.253l3.677,1.523l0.766,-1.848l-3.67,-1.521c1.052,-2.259 2.443,-4.329 4.112,-6.141l2.803,2.803l1.414,-1.414l-2.803,-2.803c1.812,-1.668 3.882,-3.06 6.141,-4.112l1.52,3.67l1.848,-0.766l-1.523,-3.677c2.276,-0.835 4.253,-1.331 7.253,-1.436v3.975h2v-3.975c3,0.104 4.976,0.601 7.253,1.437l-1.524,3.677l1.848,0.766l1.521,-3.67c2.259,1.052 4.328,2.443 6.141,4.112l-2.804,2.803l1.414,1.414l2.804,-2.803c1.669,1.813 3.06,3.882 4.112,6.141l-3.67,1.521l0.766,1.848l3.677,-1.523c0.836,2.276 1.333,4.715 1.437,7.253h-3.975v2h3.953c-0.103,2.504 -0.582,4.944 -1.425,7.25l-3.668,-1.52l-0.766,1.848l3.664,1.519c-1.034,2.227 -2.396,4.308 -4.096,6.153l-2.814,-2.813l-1.414,1.414l4.25,4.249l1.035,-1.055c4.696,-4.872 7.281,-11.28 7.281,-18.046c0,-14.337 -11.663,-26 -26,-26z" fill="url(#color-1)"></path><path d="M29,17v9.101c-2,0.465 -4,2.484 -4,4.899c0,2.757 2.243,5 5,5c2.757,0 5,-2.243 5,-5c0,-2.415 -2,-4.434 -4,-4.899v-9.101zM33,31c0,1.654 -1.346,3 -3,3c-1.654,0 -3,-1.346 -3,-3c0,-1.654 1.346,-3 3,-3c1.654,0 3,1.346 3,3z" fill="url(#color-2)"></path><path d="M36,45h-12c-1.654,0 -3,1.346 -3,3c0,1.654 1.346,3 3,3h12c1.654,0 3,-1.346 3,-3c0,-1.654 -1.346,-3 -3,-3zM36,49h-12c-0.552,0 -1,-0.448 -1,-1c0,-0.552 0.448,-1 1,-1h12c0.552,0 1,0.448 1,1c0,0.552 -0.449,1 -1,1z" fill="url(#color-3)"></path><path d="M30,28c-1.65685,0 -3,1.34315 -3,3c0,1.65685 1.34315,3 3,3c1.65685,0 3,-1.34315 3,-3c0,-1.65685 -1.34315,-3 -3,-3z" fill="url(#color-4)"></path><path d="M37,48c0,0.552 -0.448,1 -1,1h-12c-0.552,0 -1,-0.448 -1,-1v0c0,-0.552 0.448,-1 1,-1h12c0.552,0 1,0.448 1,1z" fill="url(#color-5)"></path></g></g></svg>