<svg width="140" height="24" viewBox="0 0 140 24" fill="none" xmlns="http://www.w3.org/2000/svg">
<g clip-path="url(#clip0_34_898)">
<path d="M21.25 0H2C0.895431 0 0 0.89543 0 2V22C0 23.1046 0.89543 24 2 24H21.25C22.3546 24 23.25 23.1046 23.25 22V2C23.25 0.895431 22.3546 0 21.25 0Z" fill="#00B67A"/>
<path d="M50.4375 0H31.1875C30.0829 0 29.1875 0.89543 29.1875 2V22C29.1875 23.1046 30.0829 24 31.1875 24H50.4375C51.5421 24 52.4375 23.1046 52.4375 22V2C52.4375 0.895431 51.5421 0 50.4375 0Z" fill="#00B67A"/>
<path d="M79.625 0H60.375C59.2704 0 58.375 0.89543 58.375 2V22C58.375 23.1046 59.2704 24 60.375 24H79.625C80.7296 24 81.625 23.1046 81.625 22V2C81.625 0.895431 80.7296 0 79.625 0Z" fill="#00B67A"/>
<path d="M108.812 0H89.5625C88.4579 0 87.5625 0.89543 87.5625 2V22C87.5625 23.1046 88.4579 24 89.5625 24H108.812C109.917 24 110.812 23.1046 110.812 22V2C110.812 0.895431 109.917 0 108.812 0Z" fill="#00B67A"/>
<path d="M138 0H118.75C117.645 0 116.75 0.89543 116.75 2V22C116.75 23.1046 117.645 24 118.75 24H138C139.105 24 140 23.1046 140 22V2C140 0.895431 139.105 0 138 0Z" fill="#00B67A"/>
<path d="M11.625 16.175L14.7493 13.85L16.6383 19.95L11.625 16.175ZM19.7625 10.1H13.5383L11.625 4.05005L9.71177 10.1H3.48755L8.52505 13.85L6.61177 19.9L11.6493 16.15L14.7493 13.85L19.7625 10.1Z" fill="white"/>
<path d="M40.8125 16.175L43.9368 13.85L45.8258 19.95L40.8125 16.175ZM48.9501 10.1H42.7258L40.8125 4.05005L38.8993 10.1H32.675L37.7125 13.85L35.7993 19.9L40.8368 16.15L43.9368 13.85L48.9501 10.1Z" fill="white"/>
<path d="M70.0001 16.175L73.1243 13.85L75.0133 19.95L70.0001 16.175ZM78.1376 10.1H71.9133L70.0001 4.05005L68.0868 10.1H61.8625L66.9 13.85L64.9868 19.9L70.0243 16.15L73.1243 13.85L78.1376 10.1Z" fill="white"/>
<path d="M99.1876 16.175L102.312 13.85L104.201 19.95L99.1876 16.175ZM107.325 10.1H101.101L99.1876 4.05005L97.2743 10.1H91.05L96.0876 13.85L94.1743 19.9L99.2118 16.15L102.312 13.85L107.325 10.1Z" fill="white"/>
<path d="M128.375 16.175L131.499 13.85L133.388 19.95L128.375 16.175ZM136.513 10.1H130.288L128.375 4.05L126.462 10.1H120.238L125.275 13.85L123.362 19.9L128.399 16.15L131.499 13.85L136.513 10.1Z" fill="white"/>
</g>
<defs>
<clipPath id="clip0_34_898">
<rect width="140" height="24" fill="white"/>
</clipPath>
</defs>
</svg>
