<?xml version="1.0" encoding="utf-8"?>
<!-- Generator: Adobe Illustrator 16.0.0, SVG Export Plug-In . SVG Version: 6.00 Build 0)  -->
<!DOCTYPE svg PUBLIC "-//W3C//DTD SVG 1.1//EN" "http://www.w3.org/Graphics/SVG/1.1/DTD/svg11.dtd">
<svg version="1.1" id="Layer_1" xmlns="http://www.w3.org/2000/svg" xmlns:xlink="http://www.w3.org/1999/xlink" x="0px" y="0px"
	 width="792px" height="388.481px" viewBox="0 11.605 792 388.481" enable-background="new 0 11.605 792 388.481"
	 xml:space="preserve">
<rect y="231.75" fill="#00B67A" width="148.5" height="148.5"/>
<rect x="160.875" y="231.75" fill="#00B67A" width="148.5" height="148.5"/>
<rect x="321.75" y="231.75" fill="#00B67A" width="148.5" height="148.5"/>
<rect x="482.625" y="231.75" fill="#00B67A" width="148.5" height="148.5"/>
<rect x="643.5" y="231.75" fill="#00B67A" width="148.5" height="148.5"/>
<g>
	<path fill="#FFFFFF" d="M74.25,331.833l22.584-5.724l9.436,29.081L74.25,331.833z M126.225,294.244H86.47L74.25,256.81
		l-12.22,37.434H22.275l32.175,23.204l-12.221,37.434l32.175-23.203l19.8-14.23L126.225,294.244L126.225,294.244L126.225,294.244
		L126.225,294.244z"/>
</g>
<g>
	<path fill="#FFFFFF" d="M235.125,331.833l22.584-5.724l9.436,29.081L235.125,331.833z M287.1,294.244h-39.755l-12.22-37.434
		l-12.22,37.434H183.15l32.175,23.204l-12.221,37.434l32.175-23.203l19.8-14.23L287.1,294.244L287.1,294.244L287.1,294.244
		L287.1,294.244z"/>
</g>
<g>
	<path fill="#FFFFFF" d="M396,331.833l22.584-5.724l9.437,29.081L396,331.833z M447.975,294.244h-39.754L396,256.81l-12.22,37.434
		h-39.755l32.175,23.204l-12.221,37.434l32.175-23.203l19.801-14.23L447.975,294.244L447.975,294.244L447.975,294.244
		L447.975,294.244z"/>
</g>
<g>
	<path fill="#FFFFFF" d="M556.875,331.833l22.584-5.724l9.437,29.081L556.875,331.833z M608.85,294.244h-39.754l-12.221-37.434
		l-12.221,37.434H504.9l32.175,23.204l-12.221,37.434l32.175-23.203l19.801-14.23L608.85,294.244L608.85,294.244L608.85,294.244
		L608.85,294.244z"/>
</g>
<g>
	<path fill="#FFFFFF" d="M717.75,331.833l22.584-5.724l9.437,29.081L717.75,331.833z M769.725,294.244h-39.754L717.75,256.81
		l-12.221,37.434h-39.754l32.175,23.204l-12.221,37.434l32.175-23.203l19.801-14.23L769.725,294.244L769.725,294.244
		L769.725,294.244L769.725,294.244z"/>
</g>
<g id="Type">
	<g>
		<path fill="#191919" d="M208.138,84.161h80.193v14.962h-31.532v84.108H239.46V99.123h-31.392V84.161H208.138z M284.905,111.498
			h14.822v13.843h0.28c0.489-1.957,1.398-3.845,2.727-5.663c1.329-1.817,2.937-3.565,4.824-5.034
			c1.888-1.538,3.985-2.727,6.292-3.705c2.307-0.909,4.684-1.398,7.062-1.398c1.818,0,3.146,0.07,3.845,0.14
			c0.699,0.07,1.398,0.21,2.167,0.28v15.242c-1.119-0.21-2.237-0.35-3.426-0.489s-2.308-0.21-3.426-0.21
			c-2.657,0-5.174,0.56-7.551,1.608c-2.377,1.049-4.404,2.656-6.152,4.684c-1.748,2.098-3.146,4.615-4.195,7.691
			s-1.538,6.571-1.538,10.557v34.119h-15.801v-71.664H284.905z M399.565,183.23h-15.521v-9.998h-0.28
			c-1.958,3.636-4.824,6.503-8.669,8.67s-7.76,3.286-11.746,3.286c-9.438,0-16.291-2.308-20.485-6.991
			c-4.195-4.685-6.292-11.746-6.292-21.185v-45.515h15.801v43.977c0,6.292,1.188,10.767,3.635,13.354
			c2.377,2.587,5.803,3.915,10.138,3.915c3.356,0,6.083-0.489,8.32-1.538s4.055-2.377,5.383-4.125
			c1.398-1.678,2.377-3.775,3.006-6.152s0.909-4.964,0.909-7.761v-41.6h15.801V183.23z M426.483,160.229
			c0.489,4.614,2.237,7.831,5.243,9.719c3.076,1.817,6.712,2.796,10.977,2.796c1.469,0,3.146-0.14,5.034-0.35
			c1.888-0.209,3.705-0.699,5.313-1.328c1.678-0.629,3.007-1.608,4.125-2.866c1.049-1.259,1.538-2.867,1.469-4.895
			c-0.07-2.027-0.84-3.705-2.237-4.964c-1.398-1.328-3.146-2.307-5.314-3.146c-2.167-0.769-4.614-1.468-7.41-2.027
			c-2.797-0.56-5.594-1.188-8.46-1.817c-2.937-0.63-5.803-1.469-8.53-2.377c-2.727-0.909-5.173-2.168-7.341-3.775
			c-2.167-1.538-3.915-3.566-5.174-6.013c-1.328-2.447-1.957-5.454-1.957-9.09c0-3.915,0.979-7.131,2.866-9.788
			c1.888-2.656,4.335-4.754,7.201-6.362c2.937-1.607,6.152-2.726,9.719-3.425c3.565-0.629,6.991-0.979,10.207-0.979
			c3.706,0,7.271,0.419,10.627,1.188c3.356,0.769,6.433,2.027,9.159,3.846c2.727,1.748,4.964,4.055,6.782,6.852
			c1.817,2.797,2.936,6.223,3.426,10.208h-16.5c-0.77-3.776-2.447-6.362-5.174-7.621c-2.727-1.328-5.873-1.958-9.369-1.958
			c-1.118,0-2.447,0.07-3.985,0.28c-1.538,0.209-2.937,0.559-4.334,1.049c-1.329,0.489-2.447,1.258-3.426,2.237
			c-0.909,0.979-1.398,2.236-1.398,3.845c0,1.958,0.699,3.496,2.027,4.685s3.076,2.167,5.243,3.006
			c2.168,0.77,4.614,1.469,7.411,2.028c2.797,0.559,5.663,1.188,8.6,1.817c2.867,0.629,5.663,1.468,8.46,2.377
			s5.243,2.168,7.411,3.775c2.167,1.608,3.915,3.565,5.243,5.943c1.329,2.377,2.028,5.383,2.028,8.879
			c0,4.265-0.979,7.83-2.937,10.837c-1.958,2.937-4.475,5.384-7.551,7.201c-3.077,1.817-6.572,3.216-10.348,4.055
			c-3.775,0.84-7.551,1.259-11.257,1.259c-4.544,0-8.739-0.489-12.585-1.538c-3.845-1.049-7.201-2.587-9.997-4.614
			c-2.797-2.098-5.034-4.685-6.643-7.761c-1.607-3.076-2.446-6.781-2.587-11.047h15.941V160.229z M478.64,111.498h11.956V89.964
			h15.801v21.534h14.263v11.816h-14.263v38.313c0,1.678,0.069,3.076,0.209,4.335c0.141,1.188,0.49,2.237,0.979,3.076
			s1.258,1.468,2.307,1.888c1.049,0.419,2.378,0.629,4.195,0.629c1.118,0,2.237,0,3.355-0.069c1.119-0.07,2.237-0.21,3.356-0.49
			v12.235c-1.748,0.21-3.496,0.35-5.104,0.56c-1.679,0.21-3.356,0.279-5.104,0.279c-4.194,0-7.551-0.419-10.067-1.188
			c-2.518-0.769-4.545-1.957-5.943-3.495c-1.468-1.538-2.377-3.426-2.937-5.733c-0.489-2.308-0.839-4.964-0.908-7.9v-42.299h-11.956
			v-11.956H478.64z M531.846,111.498h14.962v9.718h0.279c2.237-4.194,5.313-7.131,9.299-8.949c3.985-1.817,8.25-2.727,12.935-2.727
			c5.663,0,10.557,0.979,14.752,3.007c4.194,1.957,7.69,4.684,10.487,8.18c2.796,3.496,4.824,7.551,6.223,12.165
			c1.397,4.614,2.097,9.578,2.097,14.822c0,4.824-0.629,9.509-1.888,13.983c-1.258,4.544-3.146,8.529-5.663,12.025
			c-2.517,3.495-5.732,6.222-9.648,8.319c-3.915,2.098-8.459,3.146-13.772,3.146c-2.308,0-4.615-0.21-6.922-0.629
			c-2.308-0.42-4.545-1.119-6.642-2.028c-2.098-0.908-4.126-2.097-5.873-3.565c-1.818-1.468-3.286-3.146-4.545-5.034h-0.279v35.797
			h-15.801V111.498z M587.078,147.435c0-3.217-0.419-6.362-1.258-9.438c-0.84-3.077-2.098-5.733-3.775-8.11
			c-1.679-2.377-3.775-4.265-6.223-5.663c-2.518-1.398-5.384-2.168-8.6-2.168c-6.643,0-11.676,2.308-15.032,6.922
			c-3.355,4.614-5.034,10.767-5.034,18.458c0,3.635,0.42,6.991,1.329,10.067s2.167,5.733,3.985,7.971
			c1.747,2.237,3.845,3.984,6.292,5.243c2.447,1.328,5.313,1.958,8.529,1.958c3.636,0,6.643-0.77,9.159-2.237
			c2.517-1.469,4.545-3.426,6.152-5.733c1.608-2.377,2.797-5.034,3.496-8.04C586.729,153.656,587.078,150.58,587.078,147.435z
			 M614.975,84.161h15.801v14.962h-15.801V84.161z M614.975,111.498h15.801v71.733h-15.801V111.498z M644.898,84.161h15.801v99.07
			h-15.801V84.161z M709.15,185.188c-5.733,0-10.837-0.979-15.312-2.866s-8.25-4.545-11.396-7.831
			c-3.076-3.355-5.453-7.341-7.062-11.955c-1.607-4.614-2.446-9.719-2.446-15.242c0-5.453,0.839-10.487,2.446-15.102
			c1.608-4.614,3.985-8.6,7.062-11.955c3.077-3.356,6.922-5.943,11.396-7.831c4.475-1.888,9.578-2.867,15.312-2.867
			s10.837,0.979,15.312,2.867c4.475,1.887,8.25,4.544,11.396,7.831c3.076,3.355,5.453,7.341,7.062,11.955
			c1.607,4.614,2.446,9.648,2.446,15.102c0,5.523-0.839,10.628-2.446,15.242c-1.608,4.614-3.985,8.6-7.062,11.955
			c-3.077,3.356-6.922,5.943-11.396,7.831S714.884,185.188,709.15,185.188z M709.15,172.674c3.496,0,6.572-0.77,9.159-2.237
			c2.587-1.469,4.684-3.426,6.362-5.803c1.678-2.378,2.866-5.104,3.705-8.11c0.77-3.007,1.188-6.083,1.188-9.229
			c0-3.076-0.419-6.082-1.188-9.158c-0.769-3.076-2.027-5.733-3.705-8.11c-1.679-2.377-3.775-4.265-6.362-5.733
			c-2.587-1.468-5.663-2.237-9.159-2.237s-6.572,0.77-9.159,2.237c-2.587,1.469-4.684,3.426-6.362,5.733
			c-1.678,2.377-2.866,5.034-3.705,8.11c-0.77,3.076-1.188,6.082-1.188,9.158c0,3.146,0.419,6.223,1.188,9.229
			c0.77,3.006,2.027,5.732,3.705,8.11c1.679,2.377,3.775,4.334,6.362,5.803C702.578,171.975,705.654,172.674,709.15,172.674z
			 M749.98,111.498h11.956V89.964h15.801v21.534H792v11.816h-14.263v38.313c0,1.678,0.069,3.076,0.21,4.335
			c0.14,1.188,0.489,2.237,0.979,3.076s1.259,1.468,2.308,1.888c1.049,0.419,2.377,0.629,4.194,0.629c1.119,0,2.237,0,3.356-0.069
			c1.118-0.07,2.237-0.21,3.355-0.49v12.235c-1.748,0.21-3.495,0.35-5.104,0.56c-1.678,0.21-3.356,0.279-5.104,0.279
			c-4.195,0-7.552-0.419-10.068-1.188c-2.517-0.769-4.544-1.957-5.942-3.495c-1.469-1.538-2.377-3.426-2.937-5.733
			c-0.489-2.308-0.839-4.964-0.909-7.9v-42.299h-11.955v-11.956H749.98z"/>
	</g>
</g>
<g id="Star">
	<polygon fill="#00B67A" points="189.68,84.161 117.248,84.161 94.875,15.225 72.432,84.161 0,84.091 58.659,126.739 
		36.216,195.605 94.875,153.027 153.464,195.605 131.091,126.739 189.68,84.161 189.68,84.161 	"/>
	<polygon fill="#005128" points="136.125,142.33 131.091,126.739 94.875,153.027 	"/>
</g>
</svg>
