<svg xmlns="http://www.w3.org/2000/svg" xmlns:xlink="http://www.w3.org/1999/xlink" viewBox="0,0,256,256" width="64px" height="64px"><defs><linearGradient x1="28.033" y1="14.915" x2="27.969" y2="38.468" gradientUnits="userSpaceOnUse" id="color-1"><stop offset="0" stop-color="#0000ff"></stop><stop offset="1" stop-color="#952ffa"></stop></linearGradient><linearGradient x1="38.016" y1="37.941" x2="44.612" y2="44.919" gradientUnits="userSpaceOnUse" id="color-2"><stop offset="0" stop-color="#0000ff"></stop><stop offset="1" stop-color="#952ffa"></stop></linearGradient><linearGradient x1="32.423" y1="6.83" x2="32.423" y2="51.872" gradientUnits="userSpaceOnUse" id="color-3"><stop offset="0" stop-color="#0000ff"></stop><stop offset="1" stop-color="#952ffa"></stop></linearGradient></defs><g fill="none" fill-rule="nonzero" stroke="none" stroke-width="1" stroke-linecap="butt" stroke-linejoin="miter" stroke-miterlimit="10" stroke-dasharray="" stroke-dashoffset="0" font-family="none" font-weight="none" font-size="none" text-anchor="none" style="mix-blend-mode: normal"><g transform="scale(4,4)"><path d="M28,15c-2.76142,0 -5,5.37258 -5,12c0,6.62742 2.23858,12 5,12c2.76142,0 5,-5.37258 5,-12c0,-6.62742 -2.23858,-12 -5,-12z" fill="url(#color-1)"></path><path d="M37.362,38.964l2.144,8.847c0.203,0.838 1.246,1.131 1.856,0.521l6.703,-6.703c0.61,-0.61 0.317,-1.652 -0.521,-1.856l-8.847,-2.144c-0.805,-0.194 -1.53,0.531 -1.335,1.335z" fill="url(#color-2)"></path><path d="M56.97,51.109l-6.364,-6.364l2.973,-2.974c0.776,-0.775 1.063,-1.869 0.769,-2.926c-0.294,-1.057 -1.106,-1.845 -2.171,-2.107l-5.003,-1.234c1.163,-2.603 1.826,-5.474 1.826,-8.504c0,-11.58 -9.42,-21 -21,-21c-11.58,0 -21,9.42 -21,21c0,11.58 9.42,21 21,21c2.482,0 4.852,-0.46 7.064,-1.256l1.406,5.7c0.263,1.065 1.05,1.876 2.107,2.171c1.053,0.293 2.15,0.007 2.926,-0.769l3.445,-3.445l6.364,6.364c0.567,0.567 1.32,0.879 2.122,0.879c0.802,0 1.555,-0.312 2.121,-0.879l1.415,-1.414c1.169,-1.169 1.169,-3.072 0,-4.242zM28,46c-10.477,0 -19,-8.523 -19,-19c0,-10.477 8.523,-19 19,-19c10.477,0 19,8.523 19,19c0,2.866 -0.644,5.582 -1.786,8.02l-1.991,-0.491c1.131,-2.271 1.777,-4.824 1.777,-7.529c0,-9.374 -7.626,-17 -17,-17c-9.374,0 -17,7.626 -17,17c0,9.374 7.626,17 17,17c2.155,0 4.201,-0.434 6.098,-1.171l0.484,1.964c-2.054,0.764 -4.264,1.207 -6.582,1.207zM37.971,26c-0.174,-5.318 -1.719,-9.902 -4.066,-12.784c5.05,2.172 8.663,7.042 9.044,12.784zM42.949,28c-0.144,2.17 -0.754,4.214 -1.725,6.036l-3.892,-0.96c0.351,-1.587 0.58,-3.283 0.639,-5.076zM32.516,36.415l0.519,2.105c-1.138,1.764 -2.525,2.972 -4.035,3.344v-13.864h6.972c-0.061,1.65 -0.282,3.226 -0.618,4.697c-0.76,0.016 -1.49,0.32 -2.047,0.877c-0.749,0.749 -1.045,1.811 -0.791,2.841zM29,26v-13.863c3.71,0.914 6.709,6.805 6.972,13.863zM18.029,28c0.174,5.318 1.719,9.902 4.066,12.784c-5.05,-2.172 -8.663,-7.042 -9.044,-12.784zM13.051,26c0.381,-5.742 3.994,-10.612 9.044,-12.784c-2.347,2.882 -3.891,7.467 -4.066,12.784zM20.028,28h6.972v13.863c-3.71,-0.914 -6.709,-6.804 -6.972,-13.863zM20.028,26c0.263,-7.059 3.262,-12.949 6.972,-13.863v13.863zM55.556,53.938l-1.415,1.414c-0.377,0.378 -1.036,0.378 -1.414,0l-7.778,-7.778l-4.859,4.859c-0.373,0.373 -0.807,0.303 -0.976,0.256c-0.169,-0.047 -0.576,-0.212 -0.703,-0.724l-3.955,-16.029c-0.122,-0.495 0.144,-0.827 0.264,-0.947c0.12,-0.12 0.455,-0.383 0.946,-0.264l16.03,3.955c0.512,0.126 0.677,0.534 0.724,0.703c0.047,0.169 0.117,0.603 -0.256,0.976l-4.387,4.388l7.778,7.778c0.39,0.388 0.39,1.022 0.001,1.413z" fill="url(#color-3)"></path></g></g></svg>